<svg width="102" height="102" viewBox="0 0 102 102" fill="none" xmlns="http://www.w3.org/2000/svg">
  <path d="M0.718521 53.0488C0.734808 53.0294 0.760352 53.0002 0.796772 52.9599C0.869945 52.8788 0.976669 52.7641 1.11672 52.6161C1.39622 52.3208 1.80044 51.9014 2.31661 51.3708C3.34854 50.3102 4.8229 48.8105 6.63072 46.9817C10.2461 43.3242 15.1924 38.3532 20.5941 32.9515L40.0971 13.4682H40.7806H41.4639L50.6574 22.6617L60.0172 32.0215L60.3707 32.375L60.7243 32.0215L71.2515 21.4942L81.7788 10.967L82.1234 10.6224L81.7877 10.269L80.6598 9.08175L80.6575 9.07929C80.1315 8.53308 79.9017 8.2658 79.7867 8.05437C79.6949 7.88546 79.6694 7.74208 79.6694 7.36816C79.6694 6.94481 79.679 6.81839 79.7474 6.70546C79.8149 6.594 79.9988 6.4167 80.6241 6.15477C81.8655 5.63472 84.4005 4.94861 89.6291 3.53709C92.2005 2.84479 94.5881 2.21204 96.362 1.75252C97.2492 1.52267 97.9814 1.33657 98.5057 1.2081C98.7682 1.14378 98.9761 1.09454 99.1243 1.06161C99.1987 1.04507 99.2547 1.03342 99.2934 1.02615C99.3085 1.02333 99.3184 1.02168 99.3242 1.02076C99.6778 1.01074 100.058 1.17041 100.357 1.45066C100.652 1.72654 100.822 2.07383 100.832 2.39253C100.831 2.39737 100.83 2.40326 100.828 2.4103C100.821 2.44765 100.809 2.50222 100.792 2.5752C100.759 2.72039 100.71 2.92572 100.646 3.18599C100.517 3.70586 100.331 4.43594 100.101 5.32333C99.6414 7.09766 99.0085 9.49564 98.3161 12.0872L98.2431 12.3588C96.8711 17.4632 96.1996 19.9615 95.6881 21.1967C95.4257 21.8303 95.2479 22.0168 95.1356 22.0853C95.0221 22.1546 94.8944 22.1643 94.4656 22.1643C94.1164 22.1643 93.962 22.1355 93.8037 22.0563C93.6156 21.9623 93.3883 21.7803 92.9468 21.3689C92.9467 21.3688 92.9465 21.3686 92.9464 21.3685L91.9585 20.4399L91.6053 20.1079L91.2625 20.4507L86.9698 24.7434C86.9697 24.7436 86.9695 24.7438 86.9693 24.7439C85.6263 26.0771 84.5092 27.1497 83.6883 27.8971C83.2771 28.2715 82.9452 28.5596 82.6991 28.7569C82.5754 28.8559 82.4798 28.9269 82.4104 28.9731C82.3767 28.9955 82.3561 29.0073 82.3466 29.0126C81.4756 29.2213 80.569 28.5 80.5992 27.4878L80.5992 27.4875C80.6021 27.3881 80.6127 27.3151 80.686 27.1814C80.7736 27.0216 80.9468 26.7853 81.3021 26.3849C82.0093 25.5877 83.3361 24.2507 85.8354 21.7515C88.4453 19.1415 89.7748 17.8174 90.5477 17.1414C90.9363 16.8015 91.1483 16.6584 91.2856 16.5936C91.3927 16.543 91.4594 16.5353 91.6161 16.5353C92.0641 16.5353 92.3036 16.6384 92.529 16.8638L92.5363 16.8712L92.544 16.8782L93.0387 17.3333L93.6128 17.8615L93.853 17.1193L94.0706 16.4465L94.0738 16.4365L94.0767 16.4264C94.1763 16.0679 94.8694 13.5327 95.5824 10.8196L95.5826 10.8188C96.2947 8.08886 96.9268 5.77821 96.9647 5.64544C96.9945 5.54107 97.058 5.24148 96.8251 5.0086C96.5923 4.7757 96.2926 4.8392 96.1883 4.86902C96.0551 4.90707 93.9258 5.47887 91.4088 6.1527C88.9132 6.80632 86.379 7.49927 85.804 7.6579L85.8008 7.65878L84.752 7.95562L83.9997 8.16852L84.5085 8.76212L85.1022 9.4547L85.108 9.46153L85.1081 9.46148C85.3295 9.71061 85.4401 9.8784 85.503 10.034C85.5642 10.1852 85.5952 10.3621 85.5952 10.653V11.2767L73.315 23.5374L73.3145 23.5379L61.0539 35.8181H60.3707H59.6874L50.4939 26.6246L41.1341 17.2648L40.7806 16.9113L40.427 17.2648L22.4199 35.272L4.41274 53.2791L4.05918 53.6327L4.41274 53.9862L6.72794 56.3014L9.06293 58.6364L9.41649 58.99L9.77004 58.6364L25.0068 43.3996C32.0236 36.3828 35.843 32.5783 37.9827 30.5275C39.0555 29.4992 39.6922 28.9253 40.0924 28.6096C40.4095 28.3596 40.5274 28.3156 40.5494 28.3092C40.6862 28.3098 40.8625 28.3296 41.0337 28.3638C41.1901 28.3951 41.3108 28.4322 41.3797 28.4613C41.3855 28.466 41.3925 28.4718 41.4009 28.4789C41.4399 28.5117 41.4958 28.5609 41.5692 28.6275C41.7155 28.76 41.9198 28.9508 42.1771 29.195C42.6909 29.6827 43.4076 30.3753 44.2752 31.2219C46.0099 32.9146 48.3435 35.2185 50.8557 37.7208L0.718521 53.0488ZM0.718521 53.0488C0.560075 53.3487 0.506381 53.4839 0.500494 53.6055C0.495645 53.7056 0.5229 53.87 0.752227 54.2074C0.984075 54.5485 1.38019 55.0061 2.02484 55.681C2.66518 56.3514 3.5297 57.2148 4.68375 58.3639L4.68535 58.3655C6.77209 60.4622 7.83585 61.5202 8.47296 62.0591C8.7908 62.3279 8.96637 62.4356 9.08164 62.4837C9.17684 62.5234 9.24944 62.532 9.41649 62.532C9.49964 62.532 9.52491 62.5287 9.55872 62.5181C9.60111 62.5047 9.68434 62.469 9.8434 62.3584C10.1699 62.1313 10.7114 61.6645 11.7287 60.6981C13.7509 58.7769 17.5587 54.9742 25.0913 47.4416L40.3281 32.2048L40.6812 31.8516L41.0348 32.2044L50.335 41.4848C50.3351 41.4849 50.3351 41.485 50.3352 41.485C53.4314 44.5713 55.793 46.8934 57.4216 48.4504C58.2365 49.2295 58.8641 49.8134 59.3068 50.2048C59.529 50.4012 59.6988 50.5438 59.8194 50.6371C59.8671 50.674 59.9027 50.6996 59.9278 50.7165C60.1469 50.7496 60.2906 50.7478 60.4583 50.6949C60.6633 50.6303 60.9464 50.4751 61.4115 50.1032C62.3459 49.3562 63.8447 47.8784 66.6851 45.0281C68.564 43.1394 69.9638 41.7 70.9049 40.6852C71.3761 40.1771 71.7272 39.7809 71.9644 39.4908C72.0835 39.3452 72.1684 39.2329 72.2242 39.1506C72.2567 39.1026 72.2718 39.0754 72.2775 39.0652C72.3621 38.66 72.1911 38.1778 71.822 37.8007C71.4609 37.4319 71.0033 37.2578 70.6108 37.3279C70.596 37.3381 70.5763 37.352 70.5512 37.3707C70.4698 37.4314 70.3562 37.5232 70.2109 37.6466C69.9216 37.8923 69.5274 38.2455 69.0533 38.6838C68.1064 39.5594 66.8542 40.7622 65.5117 42.0949L60.7236 46.8632L60.3704 47.2149L60.0176 46.8629L50.856 37.7211L0.718521 53.0488ZM96.0032 5.37084C96.0031 5.37098 96.003 5.37123 96.0029 5.37158C96.003 5.37129 96.0031 5.37102 96.0032 5.37074L96.0032 5.37084ZM59.965 50.7395C59.9649 50.7393 59.962 50.7376 59.9568 50.7351C59.9625 50.7384 59.9652 50.7397 59.965 50.7395ZM70.6371 37.3109C70.6412 37.3088 70.6436 37.3074 70.6442 37.307C70.6449 37.3064 70.6427 37.3075 70.6371 37.3109ZM40.5534 28.3083C40.5534 28.3083 40.5528 28.3084 40.5514 28.3087L40.5534 28.3083ZM0.706475 53.0635C0.704496 53.066 0.703652 53.0672 0.703724 53.0671C0.703796 53.0671 0.704787 53.0658 0.706475 53.0635Z" fill="#BF0807" stroke="#BF0807" />
  <path d="M75.8782 31.8329L75.8782 31.833L75.8721 31.8354C75.6955 31.906 75.4468 32.1124 75.2331 32.4024C75.0138 32.6999 74.9199 32.9646 74.9199 33.0928C74.9199 33.8978 75.6584 34.6309 76.3987 34.6309C76.7455 34.6309 77.1193 34.4607 77.4142 34.1677C77.7096 33.8743 77.8775 33.506 77.8775 33.1719C77.8775 32.1399 76.832 31.4367 75.8782 31.8329Z" fill="#BF0807" stroke="#BF0807" />
  <path d="M82.8359 97.8597L82.8353 98.3591H82.3359H80.0603H77.7846H77.2846V97.8591V79.5551C77.2846 72.6786 77.2698 68.0759 77.2327 65.1458C77.2142 63.6801 77.1902 62.6376 77.1599 61.9401C77.1447 61.5905 77.1283 61.334 77.1109 61.1568C77.1022 61.0679 77.0939 61.0056 77.0867 60.9649C77.0851 60.9556 77.0837 60.9484 77.0826 60.9431C76.9754 60.714 76.9092 60.6203 76.8181 60.5516C76.717 60.4755 76.5258 60.388 76.0801 60.3209C75.1749 60.1845 73.5224 60.1681 70.2652 60.1681C67.008 60.1681 65.3555 60.1845 64.4502 60.3209C64.0045 60.388 63.8133 60.4755 63.7123 60.5516C63.6212 60.6203 63.5549 60.714 63.4478 60.9431C63.4467 60.9484 63.4453 60.9556 63.4436 60.9649C63.4365 61.0056 63.4282 61.0679 63.4195 61.1568C63.4021 61.334 63.3856 61.5905 63.3705 61.9401C63.3402 62.6376 63.3162 63.6801 63.2976 65.1458C63.2606 68.0759 63.2457 72.6786 63.2457 79.5551V97.8591V98.3591H62.7457H60.4701H58.1945H57.6945V97.8591V84.799L57.6945 84.1152C57.6946 77.4666 57.6947 74.1836 57.5673 72.4988C57.5001 71.6102 57.401 71.2633 57.3112 71.1087C57.2527 71.0078 57.2139 70.9889 56.9023 70.8498L57.1061 70.3933L56.903 70.8502C56.9049 70.851 56.9058 70.8514 56.9058 70.8514C56.9057 70.8517 56.8791 70.8424 56.808 70.8295C56.7313 70.8154 56.6253 70.801 56.485 70.7869C56.2048 70.7587 55.8129 70.7344 55.2939 70.7148C54.2573 70.6756 52.7413 70.6558 50.6552 70.6558C47.4079 70.6558 45.7604 70.6722 44.8578 70.8085C44.4135 70.8756 44.2229 70.963 44.1221 71.0391C44.0295 71.109 43.9625 71.2048 43.8521 71.4426C43.8523 71.4423 43.8524 71.4421 43.8525 71.4422C43.8536 71.4425 43.8421 71.4835 43.8278 71.5985C43.8111 71.7328 43.795 71.925 43.7799 72.186C43.7499 72.7065 43.7259 73.472 43.7074 74.5352C43.6704 76.66 43.6555 79.9507 43.6555 84.799V97.8591V98.3591H43.1555H40.8799H38.6043H38.1043V97.8591V79.5551C38.1043 72.6786 38.0894 68.0759 38.0524 65.1458C38.0338 63.6801 38.0098 62.6376 37.9795 61.9401C37.9644 61.5905 37.9479 61.334 37.9305 61.1568C37.9218 61.0679 37.9135 61.0056 37.9064 60.9649C37.9047 60.9556 37.9033 60.9484 37.9022 60.9431C37.7951 60.714 37.7288 60.6203 37.6377 60.5516C37.5367 60.4755 37.3455 60.388 36.8997 60.3209C35.9945 60.1845 34.342 60.1681 31.0848 60.1681C27.8276 60.1681 26.1751 60.1845 25.2699 60.3209C24.8242 60.388 24.633 60.4755 24.5319 60.5516C24.4408 60.6203 24.3745 60.714 24.2674 60.9431C24.2663 60.9484 24.2649 60.9556 24.2633 60.9649C24.2561 61.0056 24.2478 61.0679 24.2391 61.1568C24.2217 61.334 24.2053 61.5905 24.1901 61.9401C24.1598 62.6376 24.1358 63.6801 24.1173 65.1458C24.0802 68.0759 24.0653 72.6786 24.0653 79.5551V97.8591V98.3591H23.5653H21.2897H19.0141H18.5141V97.8591V88.4598V79.2533L18.0697 78.763L18.0697 78.763L18.0647 78.7573L17.6402 78.2742H11.4946H5.34911L4.9246 78.7573L4.92465 78.7573L4.91952 78.763L4.47517 79.2533V88.4598V97.8591V98.3591H3.97517H2.78788C2.47831 98.3591 2.14299 98.3866 1.85093 98.4322C1.54802 98.4796 1.34157 98.5389 1.25382 98.5816C0.795834 98.8233 0.54538 99.3297 0.557019 99.8767C0.568219 100.403 0.819584 100.873 1.25582 101.097C1.30439 101.101 1.37767 101.106 1.47812 101.11C1.67903 101.12 1.96992 101.129 2.34708 101.139C3.10039 101.157 4.18555 101.174 5.55654 101.19C8.2979 101.221 12.175 101.247 16.81 101.268C26.0797 101.311 38.3771 101.332 50.675 101.332C62.9729 101.332 75.2703 101.311 84.54 101.268C89.175 101.247 93.0521 101.221 95.7935 101.19C97.1644 101.174 98.2496 101.157 99.0029 101.139C99.3801 101.129 99.671 101.12 99.8719 101.11C99.9723 101.106 100.046 101.101 100.094 101.097C100.726 100.772 101.021 99.8895 100.612 99.1002C100.48 98.8494 100.298 98.6785 100.006 98.5596C99.6927 98.432 99.2384 98.3591 98.5621 98.3591H97.3748H96.8755L96.8748 97.8597L96.8353 67.4656V67.4653L96.7763 37.3005L96.3964 36.9749L95.9828 36.6203H89.8554H83.7279L83.3143 36.9749L82.9344 37.3005L82.8755 67.4653V67.4656L82.8359 97.8597ZM77.0953 60.9705L77.0932 60.966C77.0939 60.9675 77.0946 60.969 77.0953 60.9705ZM37.9149 60.9705L37.9128 60.966C37.9135 60.9675 37.9142 60.969 37.9149 60.9705ZM1.21385 101.092C1.21457 101.092 1.21561 101.093 1.217 101.093C1.20615 101.091 1.20366 101.091 1.21385 101.092ZM100.136 101.092C100.146 101.091 100.144 101.091 100.133 101.093C100.134 101.093 100.135 101.092 100.136 101.092ZM93.9172 97.8591V98.3591H93.4172H89.8554H86.2935H85.7935V97.8591V68.9685V40.0779V39.5779H86.2935H89.8554H93.4172H93.9172V40.0779V68.9685V97.8591ZM35.1467 97.8591V98.3591H34.6467H31.0848H27.523H27.023V97.8591V80.7424V63.6257V63.1257H27.523H31.0848H34.6467H35.1467V63.6257V80.7424V97.8591ZM74.327 97.8591V98.3591H73.827H70.2652H66.7033H66.2033V97.8591V80.7424V63.6257V63.1257H66.7033H70.2652H73.827H74.327V63.6257V80.7424V97.8591ZM54.7368 97.8591V98.3591H54.2368H50.675H47.1131H46.6131V97.8591V85.9863V74.1134V73.6134H47.1131H50.675H54.2368H54.7368V74.1134V85.9863V97.8591ZM15.5565 97.8591V98.3591H15.0565H11.4946H7.93278H7.43278V97.8591V89.746V81.6329V81.1329H7.93278H11.4946H15.0565H15.5565V81.6329V89.746V97.8591Z" fill="#BF0807" stroke="#BF0807" />
</svg>
