<svg width="17" height="17" viewBox="0 0 17 17" fill="none" xmlns="http://www.w3.org/2000/svg">
<path d="M0.454535 0.45452C0.597812 0.311002 0.767982 0.197142 0.955308 0.119457C1.14263 0.0417719 1.34344 0.00178528 1.54623 0.00178528C1.74903 0.00178528 1.94984 0.0417719 2.13716 0.119457C2.32449 0.197142 2.49466 0.311002 2.63794 0.45452L15.7293 13.5459C15.8726 13.6893 15.9862 13.8595 16.0637 14.0467C16.1411 14.234 16.181 14.4347 16.1809 14.6374C16.1808 14.84 16.1408 15.0407 16.0632 15.2279C15.9855 15.4151 15.8718 15.5852 15.7284 15.7284C15.5851 15.8717 15.4149 15.9853 15.2276 16.0627C15.0404 16.1402 14.8397 16.1801 14.637 16.18C14.4343 16.1799 14.2337 16.1399 14.0465 16.0623C13.8593 15.9846 13.6892 15.8709 13.5459 15.7275L0.452735 2.63792C0.309216 2.49464 0.195357 2.32447 0.117672 2.13715C0.0399866 1.94982 0 1.74902 0 1.54622C0 1.34342 0.0399866 1.14262 0.117672 0.955293C0.195357 0.767968 0.309216 0.597798 0.452735 0.45452H0.454535Z" fill="white" fill-opacity="0.88"/>
<path d="M15.7293 0.454535C15.8728 0.597812 15.9867 0.767982 16.0644 0.955308C16.1421 1.14263 16.182 1.34344 16.182 1.54623C16.182 1.74903 16.1421 1.94984 16.0644 2.13716C15.9867 2.32449 15.8728 2.49466 15.7293 2.63793L2.63791 15.7293C2.34837 16.0186 1.95577 16.1811 1.54647 16.1809C1.13717 16.1807 0.744704 16.018 0.455406 15.7284C0.166108 15.4389 0.00367656 15.0463 0.00384535 14.637C0.00401413 14.2277 0.166769 13.8352 0.456306 13.5459L13.5459 0.452735C13.6892 0.309216 13.8594 0.195357 14.0467 0.117672C14.234 0.0399866 14.4348 0 14.6376 0C14.8404 0 15.0412 0.0399866 15.2285 0.117672C15.4159 0.195357 15.586 0.309216 15.7293 0.452735V0.454535Z" fill="white" fill-opacity="0.88"/>
</svg>
