<svg width="20" height="20" viewBox="0 0 20 20" fill="none" xmlns="http://www.w3.org/2000/svg">
<circle cx="10" cy="10" r="9.5" stroke="white"/>
<path d="M9.66671 4C7.27786 4 5.33337 5.92146 5.33337 8.28375C5.33337 11.6897 9.20422 16.1394 9.36889 16.3279L9.66671 16.6667L9.96453 16.3271C10.1292 16.1394 14 11.6897 14 8.28375C14 5.92146 12.0556 4 9.66671 4V4ZM9.66671 15.461C8.7638 14.3519 6.12125 10.882 6.12125 8.28375C6.12125 6.35139 7.71198 4.77886 9.66671 4.77886C11.6214 4.77886 13.2122 6.35139 13.2122 8.28375C13.2122 10.8797 10.5696 14.3519 9.66671 15.461ZM9.66671 6.05542C8.36356 6.05542 7.30307 7.10377 7.30307 8.39201C7.30307 9.68026 8.36356 10.7286 9.66671 10.7286C10.9699 10.7286 12.0303 9.68026 12.0303 8.39201C12.0303 7.10377 10.9699 6.05542 9.66671 6.05542V6.05542ZM9.66671 9.94974C8.79768 9.94974 8.09095 9.2511 8.09095 8.39201C8.09095 7.53293 8.79768 6.83429 9.66671 6.83429C10.5357 6.83429 11.2425 7.53293 11.2425 8.39201C11.2425 9.2511 10.5357 9.94974 9.66671 9.94974Z" fill="white"/>
</svg>
