<svg width="62" height="62" viewBox="0 0 62 62" fill="none" xmlns="http://www.w3.org/2000/svg">
<circle cx="31" cy="31" r="31" fill="#BF0807"/>
<path d="M31.5 14C25.1604 14 20 19.1576 20 25.4985C20 34.6408 30.2726 46.5846 30.7096 47.0906L31.5 48L32.2904 47.0885C32.7274 46.5846 43 34.6408 43 25.4985C43 19.1576 37.8396 14 31.5 14ZM31.5 44.7637C29.1038 41.7866 22.0909 32.4729 22.0909 25.4985C22.0909 20.3116 26.3125 16.0906 31.5 16.0906C36.6875 16.0906 40.9091 20.3116 40.9091 25.4985C40.9091 32.4666 33.8962 41.7866 31.5 44.7637ZM31.5 19.5172C28.0416 19.5172 25.2273 22.3312 25.2273 25.7891C25.2273 29.247 28.0416 32.061 31.5 32.061C34.9584 32.061 37.7727 29.247 37.7727 25.7891C37.7727 22.3312 34.9584 19.5172 31.5 19.5172ZM31.5 29.9704C29.1937 29.9704 27.3182 28.0951 27.3182 25.7891C27.3182 23.4831 29.1937 21.6078 31.5 21.6078C33.8063 21.6078 35.6818 23.4831 35.6818 25.7891C35.6818 28.0951 33.8063 29.9704 31.5 29.9704Z" fill="white"/>
</svg>
