         <svg width="15" height="15" viewBox="0 0 15 15" fill="none" xmlns="http://www.w3.org/2000/svg">
<path fill-rule="evenodd" clip-rule="evenodd" d="M7.2815 8.38623C6.87159 8.38623 6.46291 8.25082 6.12101 7.98L3.37296 5.7644C3.17505 5.60509 3.14441 5.31528 3.30311 5.11798C3.46303 4.9213 3.75223 4.89005 3.94953 5.04874L6.69513 7.26189C7.04009 7.53516 7.52598 7.53516 7.87339 7.25944L10.5914 5.04997C10.7887 4.88882 11.0779 4.91946 11.2385 5.11676C11.3984 5.31344 11.3683 5.60264 11.1717 5.76318L8.44873 7.97632C8.10439 8.24959 7.69264 8.38623 7.2815 8.38623Z" fill="white"/>
<mask id="mask0_69_609" style="mask-type:alpha" maskUnits="userSpaceOnUse" x="0" y="1" width="14" height="13">
<path fill-rule="evenodd" clip-rule="evenodd" d="M0.678223 1.36151H13.8517V13.3096H0.678223V1.36151Z" fill="white"/>
</mask>
<g mask="url(#mask0_69_609)">
<path fill-rule="evenodd" clip-rule="evenodd" d="M4.2559 12.3905H10.2728C10.274 12.3893 10.2789 12.3905 10.2826 12.3905C10.9817 12.3905 11.6018 12.1405 12.0773 11.6656C12.6293 11.116 12.9326 10.3262 12.9326 9.44207V5.2339C12.9326 3.52258 11.8138 2.28059 10.2728 2.28059H4.25712C2.71613 2.28059 1.5973 3.52258 1.5973 5.2339V9.44207C1.5973 10.3262 1.90121 11.116 2.45266 11.6656C2.92813 12.1405 3.54882 12.3905 4.24732 12.3905H4.2559ZM4.24548 13.3096C3.30005 13.3096 2.45572 12.9664 1.80379 12.317C1.07772 11.5927 0.678223 10.5719 0.678223 9.44207V5.2339C0.678223 3.02627 2.21676 1.36151 4.25712 1.36151H10.2728C12.3132 1.36151 13.8517 3.02627 13.8517 5.2339V9.44207C13.8517 10.5719 13.4522 11.5927 12.7261 12.317C12.0748 12.9658 11.2299 13.3096 10.2826 13.3096H10.2728H4.25712H4.24548Z" fill="white"/>
</g>
</svg>