<svg width="13" height="15" viewBox="0 0 13 15" fill="none" xmlns="http://www.w3.org/2000/svg">
<path fill-rule="evenodd" clip-rule="evenodd" d="M6.90039 5.17578C6.19926 5.17578 5.62891 5.74613 5.62891 6.44799C5.62891 7.14913 6.19926 7.71875 6.90039 7.71875C7.60152 7.71875 8.17188 7.14913 8.17188 6.44799C8.17188 5.74613 7.60152 5.17578 6.90039 5.17578ZM6.90039 8.80859C5.59839 8.80859 4.53906 7.74999 4.53906 6.44799C4.53906 5.14527 5.59839 4.08594 6.90039 4.08594C8.20239 4.08594 9.26172 5.14527 9.26172 6.44799C9.26172 7.74999 8.20239 8.80859 6.90039 8.80859Z" fill="black"/>
<mask id="mask0_1037_420" style="mask-type:alpha" maskUnits="userSpaceOnUse" x="0" y="0" width="13" height="15">
<path fill-rule="evenodd" clip-rule="evenodd" d="M0.90625 0.453125H12.8942V14.6211H0.90625V0.453125Z" fill="white"/>
</mask>
<g mask="url(#mask0_1037_420)">
<path fill-rule="evenodd" clip-rule="evenodd" d="M6.90039 1.54297C4.19613 1.54297 1.99609 3.76407 1.99609 6.49304C1.99609 9.96528 6.08228 13.3482 6.90039 13.5283C7.7185 13.3474 11.8047 9.96455 11.8047 6.49304C11.8047 3.76407 9.60466 1.54297 6.90039 1.54297V1.54297ZM6.90039 14.6211C5.59694 14.6211 0.90625 10.5872 0.90625 6.49304C0.90625 3.16248 3.59526 0.453125 6.90039 0.453125C10.2055 0.453125 12.8945 3.16248 12.8945 6.49304C12.8945 10.5872 8.20384 14.6211 6.90039 14.6211V14.6211Z" fill="black"/>
</g>
</svg>
