<svg width="20" height="20" viewBox="0 0 20 20" fill="none" xmlns="http://www.w3.org/2000/svg">
<circle cx="10" cy="10" r="9.5" stroke="white"/>
<path d="M6.7644 5.85169C6.79996 6.3791 6.88885 6.89465 7.03107 7.3865L6.31996 8.09762C6.077 7.3865 5.92292 6.63391 5.86959 5.85169H6.7644ZM12.6074 12.9747C13.1111 13.1169 13.6266 13.2058 14.1481 13.2413V14.1243C13.3659 14.0709 12.6133 13.9169 11.8963 13.6798L12.6074 12.9747ZM7.33329 4.6665H5.25922C4.93329 4.6665 4.66663 4.93317 4.66663 5.2591C4.66663 10.8235 9.17626 15.3332 14.7407 15.3332C15.0666 15.3332 15.3333 15.0665 15.3333 14.7406V12.6724C15.3333 12.3465 15.0666 12.0798 14.7407 12.0798C14.0059 12.0798 13.2888 11.9613 12.6251 11.7421C12.5659 11.7184 12.5007 11.7124 12.4414 11.7124C12.2874 11.7124 12.1392 11.7717 12.0207 11.8843L10.717 13.188C9.03996 12.3287 7.66514 10.9598 6.81181 9.2828L8.11551 7.9791C8.28144 7.81317 8.32885 7.58206 8.26366 7.37465C8.0444 6.71095 7.92589 5.99984 7.92589 5.2591C7.92589 4.93317 7.65922 4.6665 7.33329 4.6665Z" fill="white"/>
</svg>
