<svg width="62" height="62" viewBox="0 0 62 62" fill="none" xmlns="http://www.w3.org/2000/svg">
<circle cx="31" cy="31" r="31" fill="#BF0807"/>
<path d="M23.1822 20.9278C23.27 22.2306 23.4896 23.5042 23.8409 24.7193L22.0842 26.4759C21.4841 24.7192 21.1034 22.8601 20.9717 20.9278H23.1822ZM37.6161 38.5237C38.8604 38.8751 40.134 39.0946 41.4222 39.1825V41.3637C39.4899 41.2319 37.6308 40.8513 35.8594 40.2657L37.6161 38.5237ZM24.5875 18H19.4639C18.6587 18 18 18.6587 18 19.4639C18 33.2098 29.1402 44.35 42.8861 44.35C43.6913 44.35 44.35 43.6913 44.35 42.8861V37.7771C44.35 36.972 43.6913 36.3132 42.8861 36.3132C41.0709 36.3132 39.2996 36.0205 37.66 35.4788C37.5136 35.4203 37.3526 35.4056 37.2062 35.4056C36.8256 35.4056 36.4596 35.552 36.1669 35.8302L32.9463 39.0507C28.8035 36.9281 25.4073 33.5465 23.2993 29.4037L26.5198 26.1831C26.9297 25.7733 27.0468 25.2023 26.8858 24.69C26.3442 23.0504 26.0514 21.2938 26.0514 19.4639C26.0514 18.6587 25.3926 18 24.5875 18Z" fill="white"/>
</svg>
