<svg width="94" height="27" viewBox="0 0 94 27" fill="none" xmlns="http://www.w3.org/2000/svg">
<path d="M42.1615 5.43841V9.33764H42.7814V5.43841H42.1615ZM43.2494 5.43841V6.00087H44.3207V9.34196H44.8928V5.99137H45.9667V5.43495L43.2494 5.43841ZM37.6453 5.43841V5.99828H38.7201V9.34455H39.3591V5.99137H40.42V5.43841H37.6453ZM37.2347 5.99137V5.42977H34.9097V9.33764H37.2304V8.70346H35.5409V7.63297H37.1105V7.06446H35.5383V5.99137H37.2347ZM34.3003 7.20097H32.3591V7.82564H33.7247C33.7412 8.27751 33.3158 8.73198 32.7758 8.86244C32.1611 9.00759 31.3711 8.65076 31.1402 8.08484C30.8693 7.41956 30.9665 6.71454 31.6463 6.21687C32.1603 5.84017 32.8817 5.93694 33.4269 6.44842L33.8323 6.04753C33.7578 5.95475 33.676 5.86807 33.5875 5.78833C33.0345 5.36583 32.4216 5.23623 31.7513 5.45396C30.7825 5.76932 30.2199 6.74996 30.4083 7.78676C30.5776 8.71988 31.4675 9.42836 32.4398 9.4059C33.5363 9.38343 34.4826 8.63089 34.3003 7.20097ZM49.6252 5.35374C48.4254 5.333 47.5286 6.17281 47.5025 7.35562C47.4773 8.47882 48.3533 9.37566 49.5062 9.40762C50.6152 9.43098 51.5373 8.56337 51.5759 7.46017C51.6254 6.29895 50.6774 5.3762 49.6252 5.35719V5.35374ZM49.5436 8.83738C48.9506 8.82961 48.1206 8.31898 48.1328 7.3971C48.1423 6.6843 48.7145 5.90756 49.5219 5.92138C50.3092 5.94789 50.9342 6.58977 50.9361 7.37377C50.9344 8.1842 50.3032 8.85034 49.5436 8.84257V8.83738ZM54.5685 5.43322V8.16174C54.5128 8.12612 54.4673 8.0767 54.4366 8.01831C53.9249 7.19578 53.4133 6.37326 52.9016 5.55073C52.8686 5.49716 52.8061 5.42977 52.7523 5.42631C52.5578 5.41076 52.3625 5.4194 52.1594 5.4194V9.33418H52.7193V6.46484C52.7754 6.50006 52.8219 6.54842 52.8548 6.60567C53.4058 7.47313 53.9582 8.34001 54.5121 9.20631C54.5525 9.27283 54.6172 9.32116 54.6927 9.3411C54.8597 9.35277 55.0272 9.35478 55.1945 9.34714V5.43668L54.5685 5.43322ZM72.1541 12.1379V20.0305H73.34V12.1413L72.1541 12.1379ZM56.6808 12.1379V20.0383H57.8623V12.1405L56.6808 12.1379ZM82.8378 14.9891L81.4965 18.4114L81.4409 18.4045C80.9727 17.2651 80.5056 16.1264 80.0397 14.9882H78.7739C78.8034 15.0599 78.826 15.1195 78.8512 15.1774C79.5005 16.667 80.1511 18.1565 80.8028 19.646C80.851 19.7396 80.851 19.8505 80.8028 19.9441C80.6101 20.3519 80.426 20.764 80.2402 21.1744L79.6577 22.4583C80.0284 22.4583 80.3609 22.4514 80.6925 22.4627C80.8051 22.4768 80.9109 22.4059 80.94 22.2968C81.9667 19.9225 82.9961 17.5497 84.028 15.1783C84.0532 15.1204 84.0758 15.0616 84.1053 14.9891H82.8378ZM59.8722 18.3958L63.5124 16.87C63.3292 16.5244 63.1842 16.1848 62.9811 15.8833C62.0261 14.4681 60.2029 14.659 59.3165 15.5524C58.6307 16.2436 58.4319 17.0903 58.5525 18.0278C58.6949 19.0685 59.4458 19.9251 60.4625 20.2068C61.4991 20.4919 62.6329 20.129 63.2762 19.3056C63.3257 19.2417 63.3631 19.1717 63.4143 19.0974L62.5322 18.4718C61.7899 19.5968 60.2672 19.3834 59.8722 18.3958ZM60.7907 15.9092C61.289 15.7796 61.8715 16.0138 62.0738 16.4432L59.6768 17.4463C59.6291 16.775 60.1404 16.0794 60.7907 15.9092ZM47.4331 14.856C45.8704 14.8621 44.6888 16.0431 44.6974 17.5932C44.6967 18.318 44.9884 19.0128 45.5072 19.5216C46.0259 20.0304 46.7282 20.3106 47.4565 20.2992C49.0131 20.2932 50.1765 19.1242 50.1739 17.5698C50.1713 15.9904 49.0192 14.8508 47.4331 14.856ZM48.9506 17.5214C48.967 17.9412 48.8181 18.3507 48.5356 18.6628C48.2503 18.9873 47.8353 19.1695 47.4022 19.1605C46.969 19.1515 46.562 18.9522 46.2905 18.6161C45.7635 17.9538 45.7803 17.0131 46.3305 16.3697C46.7293 15.9217 47.3597 15.7561 47.9288 15.9498C48.5128 16.158 48.9151 16.6934 48.9506 17.3098C48.9584 17.3789 48.9506 17.4506 48.9506 17.5214ZM41.5234 14.856C39.979 14.8465 38.7878 16.012 38.7774 17.543C38.767 19.0741 39.9503 20.2854 41.4809 20.2992C43.0497 20.313 44.2399 19.1553 44.253 17.6027C44.2695 16.0181 43.1252 14.8664 41.5269 14.856H41.5234ZM42.7684 18.4572C42.4578 18.9716 41.8618 19.2437 41.2673 19.1423C40.6532 19.0239 40.1692 18.5524 40.0371 17.9439C40.0059 17.8057 39.9972 17.6631 39.9859 17.5819C39.9955 16.9452 40.2038 16.4656 40.6804 16.1304C41.0133 15.8954 41.4295 15.8089 41.8291 15.8916C42.2287 15.9744 42.5756 16.219 42.7866 16.5667C43.1521 17.1888 43.1486 17.8351 42.7719 18.4572H42.7684ZM78.819 17.1188C78.8269 16.4288 78.5107 15.7746 77.9639 15.3502C77.351 14.8612 76.6347 14.729 75.8725 14.8232C75.3238 14.8906 74.8307 15.091 74.466 15.5222C74.3537 15.671 74.251 15.8268 74.1587 15.9887L75.2465 16.4337C75.6988 15.8703 76.3309 15.714 76.9568 16.0017C77.3649 16.1892 77.6435 16.5944 77.5836 16.9132C77.5779 16.9141 77.572 16.9141 77.5663 16.9132L77.5012 16.8838C76.7095 16.5097 75.7842 16.5439 75.0225 16.9754C74.0719 17.4826 73.8253 18.5885 74.4522 19.4162C75.092 20.2621 76.6686 20.5334 77.4907 19.5614C77.5368 19.5078 77.5923 19.4629 77.6748 19.3834V20.0348H78.8234V19.862C78.826 18.9514 78.8355 18.0329 78.8225 17.1188H78.819ZM77.5263 18.001C77.3527 18.7734 76.5531 19.3834 75.6945 19.0758C75.4288 18.9799 75.2248 18.8166 75.2049 18.5055C75.1668 18.21 75.3395 17.9277 75.6207 17.8256C75.8924 17.7184 76.1868 17.6701 76.4889 17.5923C76.8127 17.6787 77.127 17.7582 77.4369 17.8515C77.4908 17.8824 77.5247 17.9391 77.5263 18.001ZM71.338 13.7207C70.9908 12.798 70.2598 12.2519 69.2978 12.1811C68.2257 12.099 67.1413 12.1621 66.0457 12.1621V20.0314H67.2481V17.0756H67.4634C67.9348 17.0756 68.4062 17.0817 68.8777 17.0756C69.6781 17.0627 70.3831 16.8035 70.9126 16.1909C71.5438 15.4599 71.6749 14.6124 71.338 13.7224V13.7207ZM69.0443 15.9274C68.4687 15.9611 67.8879 15.936 67.308 15.936C67.2878 15.932 67.2683 15.9253 67.2498 15.9161V13.2058H67.4651C67.9539 13.2058 68.4427 13.1997 68.9315 13.2058C69.6642 13.2179 70.2398 13.7017 70.3414 14.3765C70.4516 15.104 69.8214 15.8781 69.0443 15.9274ZM55.9046 15.1584V14.9942H54.7604V15.345C54.4496 15.1852 54.1613 14.9787 53.8393 14.8837C53.0136 14.64 52.2766 14.8906 51.6523 15.4392C50.8502 16.1434 50.5315 17.0411 50.7503 18.0865C50.9552 19.0628 51.5542 19.7281 52.5101 20.0469C53.3114 20.3061 54.0528 20.2102 54.6684 19.5778C54.6952 19.5613 54.7245 19.5494 54.7552 19.5423C54.7552 19.748 54.7699 19.9381 54.7552 20.1255C54.7031 20.6923 54.4886 21.1701 53.92 21.3904C53.3513 21.6108 52.8105 21.5494 52.3504 21.1312C52.1837 20.98 52.0673 20.7727 51.9163 20.5774L50.9474 20.9999C50.9717 21.0518 50.9821 21.0785 50.996 21.1053C51.4844 22.1174 52.5677 22.7062 53.6873 22.5681C54.7769 22.4514 55.5166 21.8449 55.777 20.8124C55.8576 20.4841 55.8987 20.1473 55.8994 19.8093C55.9116 18.2602 55.9046 16.705 55.9046 15.1584ZM54.4739 18.6058C54.2177 18.9616 53.8025 19.1699 53.3626 19.163C52.9342 19.1664 52.5263 18.9807 52.2488 18.6559C51.7196 18.0371 51.6866 17.1377 52.1689 16.4821C52.5561 15.9809 53.0753 15.7658 53.6986 15.9196C54.322 16.0734 54.6675 16.5382 54.7873 17.1551C54.9017 17.661 54.7871 18.1914 54.4739 18.6058ZM38.438 15.8747C38.4215 15.7217 38.365 15.6811 38.2149 15.682C37.0211 15.688 35.8274 15.682 34.6337 15.682C34.5764 15.682 34.5191 15.6889 34.46 15.6932V16.8164H37.167C37.1861 17.2934 36.8918 17.956 36.5089 18.3146C35.7276 19.0438 34.796 19.2304 33.7846 19.0188C32.4407 18.7388 31.5465 17.6606 31.4735 16.2332C31.411 14.9951 31.9076 14.0093 33.0041 13.3993C34.1006 12.7893 35.1685 12.8956 36.2007 13.5721C36.3231 13.6516 36.4368 13.7449 36.5237 13.8088L37.3493 12.9906C37.3015 12.9483 37.2408 12.893 37.1757 12.8403C35.777 11.7059 33.9417 11.5607 32.379 12.4619C30.5212 13.5332 29.7546 15.7546 30.5897 17.6623C31.2695 19.2114 32.9251 20.3329 34.8603 20.2344C36.9699 20.129 38.7062 18.3094 38.438 15.8721V15.8747Z" fill="white"/>
<path fill-rule="evenodd" clip-rule="evenodd" d="M34.4522 16.82V15.6968C34.5156 15.6925 34.5729 15.6856 34.6259 15.6856C35.8196 15.6856 37.0133 15.6856 38.207 15.6856C38.3572 15.6856 38.4137 15.7253 38.4302 15.8782C38.701 18.3156 36.9595 20.1352 34.849 20.2423C32.9138 20.3408 31.2582 19.2193 30.5785 17.6702C29.7424 15.7625 30.5099 13.542 32.3678 12.4698C33.9305 11.5686 35.7658 11.7129 37.1644 12.8491C37.2286 12.9009 37.2894 12.9571 37.338 12.9985L36.5124 13.8167C36.4256 13.7528 36.311 13.6595 36.1886 13.5791C35.1572 12.9052 34.0746 12.8067 32.9928 13.4063C31.9111 14.0059 31.3997 15.0021 31.4623 16.2403C31.5352 17.6676 32.4294 18.7459 33.7724 19.0258C34.7856 19.2375 35.7189 19.0508 36.4976 18.3216C36.8805 17.9631 37.1748 17.3004 37.1557 16.8235H34.4522V16.82Z" fill="white"/>
<path d="M55.9046 15.1583V14.9941H54.7604V15.3449C54.4496 15.1851 54.1613 14.9786 53.8392 14.8836C53.0136 14.6399 52.2765 14.8905 51.6523 15.4391C50.8501 16.1433 50.5315 17.041 50.7503 18.0864C50.9552 19.0627 51.5542 19.728 52.5101 20.0468C53.3114 20.306 54.0528 20.2101 54.6683 19.5777C54.6952 19.5612 54.7245 19.5493 54.7552 19.5422C54.7552 19.7479 54.7699 19.938 54.7552 20.1254C54.7031 20.6922 54.4886 21.17 53.92 21.3903C53.3513 21.6107 52.8105 21.5493 52.3503 21.1311C52.1836 20.9799 52.0673 20.7726 51.9163 20.5773L50.9474 20.9998C50.9717 21.0516 50.9821 21.0784 50.996 21.1052C51.4844 22.1173 52.5677 22.7061 53.6873 22.568C54.7769 22.4513 55.5165 21.8448 55.777 20.8123C55.8576 20.484 55.8987 20.1472 55.8994 19.8092C55.9116 18.2601 55.9046 16.7049 55.9046 15.1583ZM54.4739 18.6057C54.2177 18.9615 53.8025 19.1698 53.3626 19.1629C52.9342 19.1663 52.5263 18.9806 52.2488 18.6558C51.7196 18.037 51.6866 17.1376 52.1689 16.482C52.5561 15.9808 53.0753 15.7657 53.6986 15.9195C54.3219 16.0733 54.6675 16.5381 54.7873 17.155C54.9017 17.6609 54.7871 18.1913 54.4739 18.6057Z" fill="white"/>
<path d="M71.3381 13.7224C70.9908 12.7997 70.2598 12.2536 69.2979 12.1828C68.2257 12.1007 67.1413 12.1638 66.0457 12.1638V20.0331H67.2481V17.0756H67.4634C67.9348 17.0756 68.4063 17.0817 68.8777 17.0756C69.6781 17.0627 70.3831 16.8035 70.9127 16.1909C71.5438 15.4599 71.6749 14.6123 71.3381 13.7224ZM69.0444 15.9274C68.4688 15.9611 67.888 15.936 67.308 15.936C67.2878 15.932 67.2683 15.9253 67.2499 15.9161V13.2058H67.4652C67.9539 13.2058 68.4427 13.1997 68.9315 13.2058C69.6642 13.2179 70.2398 13.7017 70.3414 14.3765C70.4517 15.104 69.8214 15.8781 69.0444 15.9274Z" fill="white"/>
<path d="M78.8225 17.1189C78.8304 16.4288 78.5141 15.7747 77.9674 15.3503C77.3545 14.8612 76.6382 14.7291 75.876 14.8232C75.3273 14.8906 74.8342 15.0911 74.4695 15.5222C74.3572 15.671 74.2545 15.8269 74.1622 15.9888L75.25 16.4337C75.7023 15.8704 76.3344 15.714 76.9603 16.0017C77.3683 16.1892 77.647 16.5944 77.5871 16.9132C77.5814 16.9141 77.5755 16.9141 77.5698 16.9132L77.5046 16.8839C76.713 16.5098 75.7876 16.544 75.026 16.9755C74.0754 17.4826 73.8288 18.5885 74.4556 19.4163C75.0955 20.2621 76.6721 20.5334 77.4942 19.5614C77.5402 19.5078 77.5958 19.4629 77.6783 19.3834V20.0349H78.8269V19.8621C78.826 18.9514 78.8355 18.033 78.8225 17.1189ZM77.5263 18.001C77.3527 18.7734 76.5531 19.3834 75.6945 19.0758C75.4289 18.9799 75.2248 18.8166 75.2049 18.5056C75.1669 18.2101 75.3395 17.9278 75.6207 17.8256C75.7141 17.7894 75.8094 17.7585 75.9064 17.7332C76.2736 17.6338 76.6608 17.6338 77.028 17.7332C77.1652 17.7703 77.3006 17.8083 77.4352 17.8498C77.4903 17.8806 77.5249 17.9381 77.5263 18.001Z" fill="white"/>
<path d="M41.5269 14.856C39.9824 14.8465 38.7913 16.012 38.7809 17.5431C38.7705 19.0741 39.9538 20.2854 41.4844 20.2992C43.0531 20.313 44.2434 19.1553 44.2564 17.6027C44.2694 16.0181 43.1252 14.8664 41.5269 14.856ZM42.7719 18.4572C42.4613 18.9717 41.8652 19.2437 41.2708 19.1423C40.6567 19.0239 40.1727 18.5524 40.0406 17.944C40.0093 17.8057 40.0007 17.6632 39.9894 17.5819C39.9989 16.9452 40.2073 16.4656 40.6839 16.1304C41.0166 15.8965 41.4319 15.8107 41.8306 15.8935C42.2293 15.9762 42.5756 16.22 42.7866 16.5667C43.1521 17.1888 43.1486 17.8351 42.7719 18.4572Z" fill="white"/>
<path d="M47.4331 14.856C45.8704 14.862 44.6888 16.0431 44.6974 17.5931C44.6967 18.318 44.9884 19.0128 45.5072 19.5216C46.0259 20.0304 46.7283 20.3105 47.4565 20.2992C49.0131 20.2931 50.1765 19.1242 50.1739 17.5698C50.1713 15.9904 49.0192 14.8508 47.4331 14.856ZM48.9506 17.5214C48.967 17.9412 48.8181 18.3507 48.5356 18.6628C48.2503 18.9873 47.8354 19.1695 47.4022 19.1605C46.969 19.1515 46.562 18.9522 46.2906 18.6161C45.7636 17.9538 45.7803 17.0131 46.3305 16.3697C46.7294 15.9217 47.3597 15.7561 47.9288 15.9498C48.5128 16.1579 48.9152 16.6934 48.9506 17.3098C48.9584 17.3789 48.9506 17.4506 48.9506 17.5214Z" fill="white"/>
<path d="M59.8722 18.3958L63.5124 16.87C63.3292 16.5244 63.1842 16.1848 62.9811 15.8833C62.0261 14.4681 60.2029 14.659 59.3165 15.5524C58.6307 16.2436 58.4319 17.0903 58.5525 18.0277C58.6949 19.0685 59.4458 19.9251 60.4625 20.2068C61.4991 20.4919 62.6329 20.129 63.2762 19.3056C63.3257 19.2417 63.3631 19.1717 63.4143 19.0974L62.5322 18.4718C61.7899 19.5968 60.2672 19.3834 59.8722 18.3958ZM60.7907 15.9092C61.289 15.7796 61.8715 16.0138 62.0738 16.4432L59.6768 17.4463C59.6291 16.7749 60.1404 16.0794 60.7907 15.9092Z" fill="white"/>
<path fill-rule="evenodd" clip-rule="evenodd" d="M79.6551 22.4601L80.2376 21.1762C80.4234 20.7658 80.6075 20.3537 80.8002 19.9459C80.8484 19.8523 80.8484 19.7414 80.8002 19.6478C80.1462 18.1594 79.4956 16.6699 78.8486 15.1792C78.8234 15.1213 78.8008 15.0626 78.7713 14.99H80.0371C80.5036 16.127 80.9707 17.2658 81.4383 18.4062L81.4939 18.414C81.9407 17.2718 82.3878 16.1308 82.8352 14.9909H84.1001C84.0706 15.0634 84.048 15.1222 84.0228 15.1801C82.9932 17.5526 81.9641 19.9254 80.9356 22.2986C80.9065 22.408 80.8001 22.4787 80.6873 22.4636C80.3583 22.4532 80.0258 22.4601 79.6551 22.4601Z" fill="white"/>
<path fill-rule="evenodd" clip-rule="evenodd" d="M57.8624 20.0408H56.6773V12.1404H57.8589L57.8624 20.0408Z" fill="white"/>
<path fill-rule="evenodd" clip-rule="evenodd" d="M73.34 12.1414V20.034H72.1541V12.1414H73.34Z" fill="white"/>
<path fill-rule="evenodd" clip-rule="evenodd" d="M55.1945 9.3471C55.0272 9.35474 54.8597 9.35272 54.6927 9.34105C54.6173 9.32087 54.5527 9.27261 54.5121 9.20627C53.9565 8.34227 53.404 7.47539 52.8548 6.60563C52.8217 6.54878 52.7756 6.50052 52.7202 6.4648V9.33846H52.1628V5.42368C52.366 5.42368 52.5613 5.41417 52.7558 5.42886C52.8096 5.43318 52.8721 5.50057 52.9051 5.55414C53.4191 6.37494 53.9307 7.19747 54.44 8.02173C54.4708 8.08011 54.5163 8.12954 54.572 8.16515V5.43664H55.198L55.1945 9.3471Z" fill="white"/>
<path d="M49.6252 5.35731C48.4253 5.33657 47.5285 6.17638 47.5025 7.3592C47.4773 8.4824 48.3533 9.37923 49.5062 9.4112C50.6165 9.43451 51.5391 8.56485 51.5759 7.46029C51.6254 6.29907 50.6774 5.37632 49.6252 5.35731ZM49.5435 8.84096C48.9506 8.83318 48.1206 8.32256 48.1328 7.40067C48.1423 6.68787 48.7144 5.91113 49.5218 5.92496C50.3078 5.95141 50.9323 6.59123 50.9361 7.37389C50.9343 8.18432 50.3032 8.85046 49.5435 8.84269V8.84096Z" fill="white"/>
<path fill-rule="evenodd" clip-rule="evenodd" d="M33.8323 6.0485L33.4269 6.44939C32.8817 5.93791 32.1603 5.84459 31.6463 6.21784C30.9665 6.71551 30.8649 7.42053 31.1402 8.08581C31.3711 8.65173 32.1611 9.00856 32.7758 8.86341C33.3158 8.73554 33.7403 8.28107 33.7247 7.82661H32.3591V7.20107H34.2994C34.4817 8.62754 33.5363 9.38008 32.4398 9.40773C31.4675 9.43106 30.5776 8.72171 30.4083 7.78859C30.2199 6.75179 30.7825 5.77029 31.7513 5.45579C32.4216 5.23807 33.0345 5.36939 33.5875 5.79016C33.6759 5.86963 33.7578 5.95601 33.8323 6.0485Z" fill="white"/>
<path fill-rule="evenodd" clip-rule="evenodd" d="M34.9098 5.42969H37.2347V5.99129H35.54V7.06265H37.1123V7.63289H35.5427V8.70425H37.2304V9.33842H34.908L34.9098 5.42969Z" fill="white"/>
<path fill-rule="evenodd" clip-rule="evenodd" d="M39.36 9.34107H38.7201V5.99653H37.6453V5.43579H40.4235V5.99134H39.3634L39.36 9.34107Z" fill="white"/>
<path fill-rule="evenodd" clip-rule="evenodd" d="M45.9668 5.43506V5.99147H44.8928V9.33947H44.3207V5.99752H43.2494V5.43506H45.9668Z" fill="white"/>
<path fill-rule="evenodd" clip-rule="evenodd" d="M42.7814 9.33771H42.1616V5.43848H42.7814V9.33771Z" fill="white"/>
<path d="M89.56 1H4.24C2.4506 1 1 2.4506 1 4.24V22.6C1 24.3894 2.4506 25.84 4.24 25.84H89.56C91.3494 25.84 92.8 24.3894 92.8 22.6V4.24C92.8 2.4506 91.3494 1 89.56 1Z" stroke="white" stroke-width="1.08"/>
<path fill-rule="evenodd" clip-rule="evenodd" d="M17.383 14.0918L9.76788 22.0222C9.71282 21.9128 9.68481 21.7916 9.68614 21.669L9.73778 6.14404L17.383 14.0918Z" fill="white"/>
<path fill-rule="evenodd" clip-rule="evenodd" d="M17.9419 13.5033L10.1559 5.41298C10.3478 5.33404 10.5655 5.35127 10.7427 5.45942L20.2205 11.1273L17.9419 13.5033Z" fill="white"/>
<path fill-rule="evenodd" clip-rule="evenodd" d="M24.1049 14.5606L20.8127 16.4927L18.4696 14.0563L20.9127 11.5442L24.1092 13.4569C24.3033 13.5727 24.4219 13.7831 24.421 14.01C24.4201 14.2368 24.2999 14.4463 24.1049 14.5606Z" fill="white"/>
<path fill-rule="evenodd" clip-rule="evenodd" d="M17.9064 14.635L20.0969 16.9127L10.847 22.3408C10.6884 22.4357 10.5007 22.4691 10.3193 22.4348L17.9064 14.635Z" fill="white"/>
</svg>
