<svg width="85" height="96" viewBox="0 0 85 96" fill="none" xmlns="http://www.w3.org/2000/svg">
<path d="M40.0508 6.93599L40.0508 6.85757C40.0508 4.98177 40.0508 3.97724 40.1184 3.3898C40.1539 3.082 40.2124 2.83716 40.328 2.62285C40.44 2.41536 40.5884 2.27229 40.7107 2.15498C41.1076 1.73717 41.665 1.49222 42.1987 1.49222C42.7324 1.49222 43.2898 1.73716 43.6867 2.15497C43.809 2.27228 43.9574 2.41535 44.0694 2.62285C44.185 2.83716 44.2435 3.082 44.279 3.3898C44.3466 3.97724 44.3466 4.98177 44.3466 6.85758L44.3466 6.93599L44.3466 7.0144C44.3466 8.89021 44.3466 9.89474 44.279 10.4822C44.2435 10.79 44.185 11.0348 44.0694 11.2491C43.9575 11.4566 43.809 11.5997 43.6868 11.717C43.2898 12.1348 42.7324 12.3798 42.1987 12.3798C41.665 12.3798 41.1076 12.1348 40.7107 11.717C40.5884 11.5997 40.44 11.4566 40.328 11.2491C40.2124 11.0348 40.1539 10.79 40.1184 10.4822C40.0508 9.89474 40.0508 8.89021 40.0508 7.01441L40.0508 6.93599Z" fill="#BF0807" stroke="#BF0807"/>
<path d="M18.2024 16.1198L18.2039 16.1214C19.3826 17.3103 20.0841 18.042 20.4885 18.5523C20.9062 19.0792 21.0679 19.4448 21.0679 19.8928C21.0679 21.0547 20.0613 22.0613 18.8994 22.0613C18.4507 22.0613 18.0848 21.8991 17.5576 21.4784C17.0472 21.0712 16.3157 20.3645 15.127 19.1758C14.3291 18.3831 13.7073 17.7511 13.2433 17.2341C12.7844 16.7228 12.452 16.294 12.2596 15.9091C12.0578 15.5056 11.9909 15.1107 12.1225 14.7091C12.2418 14.3449 12.5056 14.044 12.7781 13.7715C13.0506 13.499 13.3515 13.2352 13.7161 13.1159C14.118 12.9844 14.5132 13.0513 14.9175 13.2527C15.3035 13.4449 15.7341 13.7769 16.2483 14.2358C16.7683 14.6998 17.4043 15.3217 18.2024 16.1198Z" fill="#BF0807" stroke="#BF0807"/>
<path d="M66.1081 16.2054L66.1088 16.2047C66.8332 15.47 67.5386 14.7801 68.0932 14.2618C68.3701 14.0032 68.6129 13.784 68.8036 13.6224C68.8985 13.5419 68.9851 13.4717 69.0593 13.4168C69.1131 13.377 69.2064 13.3094 69.3065 13.2697C69.7127 13.1011 70.1151 13.0018 70.537 13.0965C70.9525 13.1897 71.298 13.4516 71.6385 13.7921C71.9079 14.0614 72.1678 14.3615 72.2816 14.728C72.4063 15.1292 72.333 15.5224 72.1299 15.9222C71.9352 16.3055 71.6025 16.7332 71.1442 17.2433C70.681 17.7589 70.0618 18.3882 69.269 19.1758C68.0804 20.3645 67.3488 21.0712 66.8384 21.4784C66.3112 21.8991 65.9453 22.0613 65.4966 22.0613C64.3347 22.0613 63.3281 21.0547 63.3281 19.8928C63.3281 19.4423 63.4974 19.0761 63.9051 18.5624C64.301 18.0634 64.9815 17.3525 66.1081 16.2054Z" fill="#BF0807" stroke="#BF0807"/>
<path d="M39.1438 14.8038L39.134 14.8053C36.7725 15.1782 34.7847 15.6161 33.1195 16.185C18.2965 21.134 10.2236 37.2561 15.1517 52.0203C17.1836 58.1578 20.6274 62.7768 25.8836 66.5043L25.8887 66.508L25.8887 66.5079C26.7357 67.0927 27.7328 67.7731 28.1188 67.9784L28.497 68.1858L28.5567 76.7497V76.7498C28.5876 81.0272 28.6081 83.257 28.6733 84.4844C28.7057 85.0946 28.7503 85.4926 28.8241 85.7827C28.9058 86.1038 29.0214 86.2848 29.1486 86.4566C29.6167 87.0948 30.0316 87.5458 30.7001 87.8074C31.3274 88.0529 32.1361 88.1123 33.3256 88.1428L35.0835 88.2079L35.1486 89.9659C35.1792 91.1554 35.2386 91.9641 35.484 92.5914C35.7451 93.2587 36.195 93.6732 36.8313 94.1403C36.9852 94.2583 37.1518 94.3699 37.3896 94.4535C37.618 94.5338 37.8872 94.5796 38.2405 94.6094C38.9391 94.6683 40.0992 94.673 42.1989 94.673C44.2985 94.673 45.4587 94.6683 46.1573 94.6094C46.5106 94.5796 46.7797 94.5338 47.0082 94.4535C47.246 94.3699 47.4126 94.2583 47.5665 94.1403C48.2028 93.6732 48.6526 93.2587 48.9137 92.5914C49.1592 91.9641 49.2186 91.1553 49.2491 89.9657C49.2492 89.9648 49.2492 89.9639 49.2492 89.963L49.3143 88.2079L51.0693 88.1429C51.0702 88.1429 51.0712 88.1429 51.0721 88.1428C52.2616 88.1123 53.0704 88.0529 53.6977 87.8074C54.365 87.5463 54.7796 87.0965 55.2467 86.46C55.3782 86.2885 55.4927 86.1059 55.5743 85.7853C55.6485 85.4935 55.6946 85.091 55.7296 84.476C55.7999 83.2387 55.8308 80.9988 55.8822 76.7316L55.8822 76.7314L55.982 68.1294L57.0218 67.4921C57.0221 67.4919 57.0225 67.4916 57.0229 67.4914C62.6222 64.0937 67.0864 58.52 69.1224 52.412C69.7231 50.61 70.0985 49.2721 70.3185 47.8936C70.5385 46.5155 70.6003 45.1147 70.59 43.1891L39.1438 14.8038ZM39.1438 14.8038L39.1536 14.8026C39.5458 14.7565 41.2933 14.7378 43.0337 14.7787M39.1438 14.8038L43.0337 14.7787M43.0337 14.7787C43.034 14.7787 43.0343 14.7788 43.0346 14.7788L43.0228 15.2786L43.0337 14.7787ZM45.9711 19.2741L45.9687 19.2737C44.2814 18.9924 40.9537 18.9127 39.485 19.1112L39.482 19.1116C31.1759 20.1827 24.1953 25.0693 20.5436 32.393L20.5435 32.3931C14.7319 44.0365 19.1694 58.1235 30.6364 64.4223L30.6366 64.4224C31.0611 64.6559 31.4779 64.9121 31.806 65.1399C31.9694 65.2533 32.1176 65.3644 32.2358 65.4656C32.2948 65.5162 32.352 65.569 32.4018 65.6224C32.4438 65.6674 32.5004 65.7336 32.5441 65.8153C32.5932 65.9033 32.6196 65.9976 32.6349 66.0591C32.6542 66.1366 32.6703 66.2246 32.6841 66.3167C32.7119 66.5016 32.7349 66.7328 32.7534 66.9902C32.7905 67.5067 32.8113 68.1576 32.8113 68.8155V70.705H36.4312H40.051V67.456V63.9129L37.7241 61.5666L37.7232 61.5658C36.9264 60.7586 36.2978 60.0834 35.8655 59.5689C35.6503 59.3128 35.4758 59.0871 35.3525 58.8993C35.291 58.8058 35.2357 58.7117 35.194 58.621C35.1577 58.5419 35.1072 58.4144 35.1072 58.2688C35.1072 56.9215 36.155 55.8737 37.5023 55.8737C37.6402 55.8737 37.7609 55.9192 37.8357 55.952C37.9213 55.9896 38.0093 56.0392 38.0957 56.0937C38.2693 56.2032 38.4744 56.3565 38.7022 56.543C39.1595 56.9174 39.7434 57.4546 40.4086 58.1197C40.4091 58.1202 40.4096 58.1207 40.4101 58.1213L42.1989 59.8756L43.9876 58.1213C43.9882 58.1207 43.9887 58.1202 43.9892 58.1197C44.6544 57.4546 45.2383 56.9174 45.6955 56.543C45.9233 56.3565 46.1285 56.2032 46.3021 56.0937C46.3885 56.0392 46.4765 55.9896 46.5621 55.952C46.6369 55.9192 46.7576 55.8737 46.8955 55.8737C48.3457 55.8737 49.5309 57.1633 49.1727 58.5961L49.1694 58.6091L49.1655 58.6219C49.1334 58.726 49.0735 58.8251 49.0309 58.8915C48.9804 58.9702 48.9166 59.0594 48.8443 59.1547C48.6992 59.3462 48.5042 59.5831 48.275 59.8476C47.8158 60.3776 47.2051 61.0352 46.5487 61.6916L44.3468 63.8935V67.4354V70.705H47.9666H51.5864V68.8155C51.5864 68.1576 51.6073 67.5067 51.6444 66.9902C51.6628 66.7328 51.6858 66.5016 51.7136 66.3167C51.7275 66.2246 51.7436 66.1366 51.7629 66.0591C51.7781 65.9977 51.8045 65.9034 51.8536 65.8154C51.8973 65.7337 51.954 65.6674 51.9961 65.6223C52.0459 65.5689 52.1031 65.516 52.1622 65.4654C52.2806 65.3639 52.4293 65.2523 52.5937 65.1378C52.9238 64.9078 53.3449 64.6469 53.7781 64.4038L53.7818 64.4018C59.655 61.1726 63.9347 55.6829 65.6511 49.0997L65.6518 49.0973C65.9499 47.9768 66.1005 47.3394 66.1811 46.585C66.2627 45.8208 66.2735 44.927 66.2735 43.2933C66.2735 40.739 66.1899 39.4303 65.9565 38.399C63.6311 28.2282 55.9585 20.8882 45.9711 19.2741ZM32.8113 77.2967H42.1989H51.5864V76.1488V75.0009H42.1989H32.8113V76.1488V77.2967ZM32.8113 83.8884H42.1989H51.5864V82.7405V81.5926H42.1989H32.8113V82.7405V83.8884ZM42.1989 90.4801H44.9947V89.3322V88.1843H42.1989H39.403V89.3322V90.4801H42.1989Z" fill="#BF0807" stroke="#BF0807"/>
<path d="M0.5 43.1903C0.5 42.6566 0.744951 42.0992 1.16276 41.7023C1.28007 41.5801 1.42314 41.4316 1.63063 41.3196C1.84494 41.204 2.08978 41.1455 2.39758 41.1101C2.98502 41.0424 3.98955 41.0424 5.86536 41.0424L5.94377 41.0424L6.02219 41.0424C7.89799 41.0424 8.90252 41.0424 9.48996 41.1101C9.79776 41.1455 10.0426 41.204 10.2569 41.3196C10.4644 41.4316 10.6075 41.5801 10.7248 41.7023C11.1426 42.0993 11.3875 42.6566 11.3875 43.1903C11.3875 43.7241 11.1426 44.2814 10.7248 44.6784C10.6075 44.8006 10.4644 44.9491 10.2569 45.061C10.0426 45.1767 9.79776 45.2351 9.48996 45.2706C8.90252 45.3383 7.89799 45.3383 6.02219 45.3383L5.94377 45.3383L5.86535 45.3383C3.98955 45.3383 2.98502 45.3383 2.39758 45.2706C2.08978 45.2351 1.84494 45.1767 1.63063 45.061C1.42314 44.9491 1.28007 44.8006 1.16277 44.6784C0.744952 44.2814 0.5 43.7241 0.5 43.1903Z" fill="#BF0807" stroke="#BF0807"/>
<path d="M73.0078 43.1903C73.0078 42.6566 73.2528 42.0992 73.6706 41.7023C73.7879 41.5801 73.931 41.4316 74.1384 41.3196C74.3528 41.204 74.5976 41.1455 74.9054 41.1101C75.4928 41.0424 76.4974 41.0424 78.3732 41.0424L78.4516 41.0424L78.53 41.0424C80.4058 41.0424 81.4103 41.0424 81.9978 41.1101C82.3056 41.1455 82.5504 41.204 82.7647 41.3196C82.9722 41.4316 83.1153 41.5801 83.2326 41.7023C83.6504 42.0993 83.8954 42.6566 83.8954 43.1903C83.8954 43.7241 83.6504 44.2814 83.2326 44.6784C83.1153 44.8006 82.9722 44.9491 82.7647 45.061C82.5504 45.1767 82.3056 45.2351 81.9978 45.2706C81.4103 45.3383 80.4058 45.3383 78.53 45.3383L78.4516 45.3383L78.3732 45.3383C76.4974 45.3383 75.4928 45.3383 74.9054 45.2706C74.5976 45.2351 74.3528 45.1767 74.1384 45.061C73.931 44.9491 73.7879 44.8006 73.6706 44.6784C73.2528 44.2814 73.0078 43.7241 73.0078 43.1903Z" fill="#BF0807" stroke="#BF0807"/>
<path d="M12.7817 72.6126L12.7817 72.6126L12.7782 72.6091C12.5078 72.3386 12.2513 72.0411 12.1318 71.6827C12.0011 71.2904 12.0565 70.9021 12.2447 70.5044C12.4239 70.1258 12.7361 69.7102 13.1647 69.2227C13.598 68.73 14.1778 68.1335 14.9192 67.3921C15.6124 66.6885 16.2918 66.0247 16.8283 65.5247C17.0962 65.2749 17.3322 65.0627 17.5182 64.9057C17.6108 64.8276 17.6958 64.7592 17.7689 64.7054C17.8219 64.6665 17.9122 64.6017 18.0097 64.5625C18.41 64.3918 18.8099 64.2945 19.2286 64.3845C19.6432 64.4736 19.9892 64.7281 20.3242 65.0631L20.3242 65.0631L20.3276 65.0665C20.6023 65.3465 20.8641 65.6552 20.9785 66.0288C21.1034 66.4366 21.0309 66.8368 20.8237 67.2465C20.625 67.6393 20.2849 68.077 19.815 68.5988C19.3402 69.1259 18.7053 69.7682 17.8918 70.5715C17.1757 71.2824 16.598 71.8396 16.1192 72.2562C15.6457 72.6681 15.239 72.9695 14.8659 73.142C14.4733 73.3234 14.0905 73.374 13.7038 73.2457C13.3497 73.1284 13.0531 72.8786 12.7817 72.6126Z" fill="#BF0807" stroke="#BF0807"/>
<path d="M66.1918 70.2609C65.4549 69.524 64.8784 68.9309 64.4478 68.4407C64.0219 67.956 63.7115 67.5421 63.5336 67.1644C63.3466 66.7675 63.2925 66.3799 63.4236 65.9885C63.5434 65.631 63.7995 65.3337 64.0701 65.0632C64.3406 64.7926 64.6379 64.5365 64.9954 64.4167C65.3868 64.2855 65.7744 64.3397 66.1714 64.5267C66.549 64.7046 66.9629 65.015 67.4476 65.4408C67.9378 65.8715 68.5309 66.448 69.2678 67.1849C69.9633 67.8803 70.6239 68.5773 71.1281 69.1416C71.3799 69.4233 71.5959 69.6757 71.7589 69.8804C71.8402 69.9824 71.9116 70.0768 71.9688 70.1597C72.0194 70.2329 72.0791 70.3257 72.1168 70.4186C72.4572 71.2439 72.1511 72.0844 71.6212 72.6143C71.0914 73.1442 70.2507 73.4503 69.4255 73.1098C69.3326 73.0721 69.2398 73.0124 69.1666 72.9619C69.0838 72.9047 68.9894 72.8333 68.8873 72.752C68.6826 72.589 68.4302 72.3729 68.1485 72.1212C67.5842 71.617 66.8873 70.9563 66.1918 70.2609Z" fill="#BF0807" stroke="#BF0807"/>
</svg>
