<svg width="95" height="30" viewBox="0 0 95 30" fill="none" xmlns="http://www.w3.org/2000/svg">
<path fill-rule="evenodd" clip-rule="evenodd" d="M7.56457 1H87.439C87.6862 1 87.9376 1 88.1856 1.00132C88.3616 1.00253 88.5419 1.00554 88.7196 1.00849L88.8199 1.01015C89.2814 1.01536 89.7417 1.05641 90.1969 1.13295C90.6539 1.21139 91.0967 1.35817 91.5107 1.56844C92.3388 1.99758 93.0128 2.67784 93.4377 3.51351C93.6454 3.92988 93.7892 4.37568 93.8642 4.83564C93.9409 5.29521 93.9836 5.75989 93.9919 6.22585C93.9946 6.43913 93.9946 6.65273 93.9946 6.86579C94 7.11746 94 7.36979 94 7.62422V22.5246C94 22.7811 94 23.032 93.9946 23.2845C93.9946 23.4997 93.9946 23.7086 93.9919 23.9244C93.9836 24.3904 93.9409 24.855 93.8642 25.3146C93.7895 25.7748 93.6457 26.2208 93.4377 26.6374C93.2264 27.0519 92.952 27.4304 92.6241 27.7588C92.2987 28.0901 91.9228 28.3666 91.5106 28.5776C91.0965 28.7884 90.6539 28.9361 90.1968 29.0157C89.7415 29.0917 89.2812 29.1328 88.8198 29.1385C88.6104 29.1432 88.3952 29.1461 88.1855 29.1461C87.9379 29.1474 87.6865 29.1474 87.439 29.1474H7.56529C7.31277 29.1474 7.06298 29.1474 6.81145 29.1461C6.60071 29.1461 6.39161 29.1432 6.17879 29.1385C5.7165 29.1325 5.2553 29.0914 4.7991 29.0157C4.34353 28.9366 3.90234 28.789 3.49026 28.5776C3.07772 28.3667 2.70143 28.0902 2.37576 27.7588C2.04713 27.4316 1.7732 27.053 1.56462 26.6374C1.35505 26.2213 1.20993 25.7752 1.13429 25.3146C1.05759 24.8551 1.01635 24.3903 1.01093 23.9244C1.00612 23.7738 1.00435 23.6265 1.00256 23.4777C1.00179 23.4137 1.00101 23.3494 1 23.2845V6.86579C1.00096 6.80122 1.00168 6.73662 1.00242 6.67201C1.00409 6.52341 1.00578 6.37465 1.01027 6.22563C1.0157 5.7597 1.05694 5.29491 1.13363 4.83542C1.20953 4.37518 1.35464 3.92932 1.56397 3.5133C1.77267 3.09643 2.04655 2.7162 2.3751 2.38722C2.70202 2.05734 3.07806 1.78107 3.4896 1.56844C3.90168 1.35765 4.34292 1.21083 4.79843 1.13295C5.25458 1.05674 5.71582 1.01569 6.17814 1.01015C6.21922 1.00949 6.26016 1.00881 6.301 1.00813C6.47173 1.0053 6.64073 1.00248 6.81079 1.00132C7.06266 1 7.3121 1 7.56457 1ZM6.19162 28.5329C6.39973 28.5376 6.60446 28.5403 6.81421 28.5403L87.4394 28.5417L88.1857 28.5403C88.3908 28.5403 88.602 28.5376 88.8036 28.5329C89.2348 28.5276 89.665 28.4898 90.0906 28.4196C90.4902 28.3512 90.8773 28.2225 91.2388 28.0377C91.5957 27.8547 91.9211 27.6148 92.2024 27.3274C92.4842 27.0457 92.7202 26.7208 92.9017 26.3649C93.0838 25.9997 93.2093 25.6085 93.2736 25.2048C93.3438 24.7791 93.3832 24.3488 93.3912 23.9174C93.394 23.7043 93.394 23.4973 93.394 23.2715C93.3994 23.0235 93.3994 22.7776 93.3994 22.5255V22.5246V7.62411V7.62325C93.3994 7.37353 93.3994 7.12588 93.394 6.86568C93.394 6.65605 93.394 6.44454 93.392 6.24781C93.3835 5.80844 93.3433 5.37028 93.2717 4.93682C93.2068 4.53847 93.0826 4.15231 92.9032 3.79145C92.5365 3.06964 91.955 2.48174 91.2404 2.11018C90.8778 1.9264 90.4901 1.7981 90.0901 1.72953C89.6669 1.65951 89.2392 1.62178 88.8105 1.61666L88.1818 1.60783H6.81453L6.19326 1.61633C5.76062 1.6217 5.32901 1.6598 4.90203 1.7303C4.50596 1.79808 4.12223 1.9255 3.76368 2.10831C3.407 2.29264 3.08119 2.53229 2.79814 2.81853C2.51479 3.10203 2.27876 3.42991 2.09921 3.78946C1.91687 4.15281 1.79067 4.54216 1.72498 4.94399C1.65438 5.37392 1.61629 5.80864 1.61102 6.24439C1.60698 6.38551 1.60096 6.86579 1.60096 6.86579V23.2749C1.60096 23.2749 1.60665 23.7627 1.61102 23.9091C1.61652 24.3456 1.65483 24.781 1.72563 25.2117C1.79088 25.6124 1.91665 26.0007 2.09856 26.3628C2.27873 26.7227 2.51608 27.0505 2.8012 27.3329C3.08233 27.6189 3.40729 27.8574 3.76358 28.0391C4.12293 28.2224 4.50736 28.3507 4.90422 28.4196C5.32998 28.4894 5.76029 28.5273 6.19162 28.5329Z" fill="white" stroke="#290000" stroke-width="0.2"/>
<path d="M35.4918 20.0243H32.2646L31.4746 22.2026H30.0558L33.2162 14.0679H34.5574L37.7901 22.2026H36.2989L35.4918 20.0243ZM32.6711 18.9183H35.0805L34.2175 16.5885C34.099 16.2666 33.9821 15.9111 33.8669 15.5221C33.7631 15.8663 33.65 16.2181 33.528 16.5774L32.6711 18.9183Z" fill="white"/>
<path d="M38.4303 17.6273C38.4303 17.178 38.4155 16.6839 38.386 16.1449H39.6764C39.7249 16.3992 39.7584 16.6561 39.7768 16.9143C40.3109 16.3266 40.9229 16.0328 41.613 16.0327C42.025 16.0261 42.4295 16.1435 42.775 16.3699C43.1204 16.5963 43.3912 16.9216 43.5525 17.3041C43.762 17.7439 43.8668 18.3025 43.8668 18.9799C43.8838 19.6039 43.761 20.2237 43.5076 20.7932C43.2937 21.2662 42.9438 21.6633 42.5033 21.9329C42.0507 22.1971 41.535 22.331 41.0122 22.3203C40.601 22.3197 40.1929 22.2495 39.8048 22.1125V24.6163L38.4302 24.7344L38.4303 17.6273ZM42.0443 20.7233C42.3245 20.3435 42.4646 19.7886 42.4645 19.0589C42.4645 18.3814 42.3485 17.8901 42.1167 17.5851C42.0105 17.4388 41.8708 17.3208 41.7094 17.2411C41.548 17.1615 41.3699 17.1225 41.1904 17.1277C40.9314 17.1255 40.6764 17.1912 40.4502 17.3184C40.2113 17.4556 39.9939 17.6278 39.805 17.8293V21.0742C39.9574 21.1468 40.118 21.2006 40.2832 21.2342C40.4606 21.273 40.6417 21.2928 40.8233 21.2931C41.3573 21.293 41.7644 21.103 42.0443 20.7231V20.7233Z" fill="white"/>
<path d="M44.7467 17.6273C44.7467 17.178 44.7319 16.6839 44.7023 16.1449H45.9928C46.0412 16.3992 46.0747 16.6561 46.093 16.9143C46.627 16.3266 47.2392 16.0328 47.9293 16.0327C48.3413 16.0261 48.7459 16.1436 49.0913 16.37C49.4368 16.5965 49.7074 16.9218 49.8687 17.3043C50.0782 17.7441 50.183 18.3027 50.183 18.9801C50.2 19.6041 50.0772 20.2239 49.8238 20.7934C49.61 21.2664 49.2601 21.6635 48.8196 21.9331C48.3668 22.1973 47.8511 22.3313 47.3282 22.3205C46.9172 22.3199 46.509 22.2497 46.1209 22.1127V24.6165L44.7464 24.7346L44.7467 17.6273ZM48.3608 20.7233C48.6409 20.3435 48.7809 19.7886 48.7809 19.0589C48.7809 18.3814 48.665 17.8901 48.4331 17.5851C48.3269 17.4388 48.1872 17.3208 48.0257 17.2411C47.8643 17.1615 47.6863 17.1225 47.5067 17.1277C47.2477 17.1254 46.9927 17.1912 46.7666 17.3184C46.5277 17.4556 46.3102 17.6277 46.1214 17.8293V21.0742C46.2738 21.1468 46.4344 21.2006 46.5996 21.2342C46.7771 21.273 46.9581 21.2928 47.1398 21.2931C47.6738 21.293 48.0808 21.1029 48.3608 20.7231V20.7233Z" fill="white"/>
<path d="M52.7761 21.8178C52.1884 21.4929 51.7113 20.9969 51.4071 20.3946C51.088 19.7767 50.9286 19.0468 50.9289 18.2049C50.9289 17.2919 51.1124 16.5162 51.4795 15.8778C51.8269 15.2593 52.349 14.7592 52.9792 14.4412C53.6413 14.1144 54.3705 13.9499 55.1075 13.9612C55.5543 13.9593 55.9998 14.0111 56.4344 14.1156C56.8409 14.2133 57.2356 14.3554 57.6117 14.5393L57.2611 15.606C56.6116 15.2745 55.8967 15.0943 55.1689 15.0785C54.6552 15.0668 54.1475 15.1916 53.6969 15.4406C53.2707 15.6872 52.9284 16.0582 52.7147 16.5045C52.4677 17.0341 52.3477 17.6149 52.3641 18.1999C52.3547 18.7272 52.4463 19.2513 52.6341 19.7436C52.8028 20.1788 53.1 20.5511 53.4855 20.8103C53.8731 21.0724 54.3615 21.2033 54.9509 21.2033C55.2195 21.2032 55.4876 21.1807 55.7523 21.1359C56.0083 21.0941 56.2597 21.0283 56.5034 20.9394V19.2945H54.6403V18.2168H57.8397V21.6413C57.3757 21.8596 56.8897 22.0271 56.3902 22.1409C55.8946 22.2557 55.3877 22.3139 54.8793 22.3148C54.0704 22.3148 53.3694 22.1491 52.7761 21.8178Z" fill="white"/>
<path d="M62.7921 22.2023C62.7405 21.9375 62.7089 21.6692 62.6978 21.3995C62.4678 21.669 62.1867 21.8894 61.8712 22.0478C61.5155 22.2294 61.1214 22.321 60.7229 22.3145C60.3972 22.3187 60.0748 22.2487 59.7795 22.1097C59.4987 21.9757 59.2635 21.7606 59.1035 21.4918C58.9286 21.1861 58.8419 20.8371 58.8532 20.4843C58.8431 20.2167 58.8947 19.9506 59.0039 19.7065C59.113 19.4625 59.2767 19.2473 59.4821 19.0779C59.9014 18.7279 60.6005 18.5529 61.5798 18.5529C61.9447 18.5528 62.3093 18.579 62.6704 18.6316V18.5137C62.6704 17.9784 62.5575 17.6013 62.3314 17.3825C62.1054 17.1636 61.781 17.054 61.3581 17.0539C61.0405 17.0574 60.7245 17.1007 60.4176 17.1832C60.1156 17.2581 59.8212 17.3616 59.5384 17.4922L59.3214 16.4816C59.6335 16.3474 59.9579 16.2439 60.2899 16.1727C60.706 16.0773 61.1317 16.0302 61.5584 16.0322C62.0113 16.0198 62.462 16.101 62.8825 16.271C63.2522 16.4359 63.5532 16.7257 63.7339 17.0904C63.938 17.4778 64.0401 17.9991 64.0401 18.654V21.0624C64.0401 21.3132 64.0549 21.693 64.0845 22.2021L62.7921 22.2023ZM61.9687 21.0794C62.2342 20.9562 62.4726 20.7805 62.6699 20.563V19.4403C62.3649 19.4036 62.0584 19.3829 61.7512 19.3785C61.1837 19.3785 60.7915 19.4711 60.5745 19.6563C60.4673 19.7479 60.3823 19.8631 60.3259 19.993C60.2694 20.1229 60.2432 20.2641 60.2491 20.4057C60.2491 20.7052 60.3278 20.927 60.4853 21.0712C60.6646 21.2229 60.8943 21.3001 61.1278 21.2873C61.4202 21.2831 61.7077 21.2121 61.9688 21.0794H61.9687Z" fill="white"/>
<path d="M65.2413 20.7484V13.5908L66.6098 13.4785V20.5016C66.6098 20.7598 66.6536 20.9423 66.7411 21.0489C66.7937 21.1056 66.8583 21.1494 66.9302 21.1771C67.002 21.2049 67.0792 21.2157 67.1558 21.2088C67.2783 21.2029 67.3997 21.1821 67.5173 21.1472L67.679 22.1409C67.5251 22.1997 67.3656 22.2421 67.203 22.2673C67.0274 22.2978 66.8497 22.3138 66.6715 22.3148C65.7179 22.3148 65.2412 21.7927 65.2413 20.7484Z" fill="white"/>
<path d="M68.6635 20.7484V13.5908L70.0321 13.4785V20.5016C70.0321 20.7598 70.0758 20.9423 70.1633 21.0489C70.2158 21.1056 70.2805 21.1494 70.3523 21.1771C70.4241 21.2049 70.5013 21.2157 70.578 21.2088C70.7004 21.2029 70.8218 21.1821 70.9395 21.1472L71.1003 22.1409C70.9465 22.1997 70.7869 22.2421 70.6243 22.2673C70.4488 22.2978 70.2711 22.3138 70.0929 22.3148C69.1398 22.3148 68.6633 21.7927 68.6635 20.7484Z" fill="white"/>
<path d="M76.7989 19.3504H72.8704C72.9336 20.6191 73.5327 21.2535 74.6679 21.2535C74.9594 21.2524 75.2497 21.2176 75.5334 21.1496C75.8236 21.0819 76.1076 20.9889 76.3819 20.8716L76.6822 21.8206C75.9747 22.1578 75.1998 22.3268 74.4175 22.3144C73.7794 22.3144 73.2414 22.1928 72.8036 21.9495C72.3728 21.7135 72.0272 21.346 71.8159 20.8997C71.5825 20.3821 71.4693 19.8176 71.4849 19.2492C71.4694 18.6534 71.5892 18.0619 71.8355 17.5201C72.0466 17.063 72.3863 16.6784 72.8122 16.4143C73.249 16.1543 73.7488 16.022 74.2558 16.0324C74.7595 16.014 75.2564 16.1543 75.6775 16.4339C76.0563 16.7001 76.3502 17.0718 76.5234 17.5035C76.7113 17.9722 76.8048 18.4741 76.7985 18.9797L76.7989 19.3504ZM75.4578 18.469C75.4322 17.9863 75.3117 17.6241 75.0963 17.3827C74.9876 17.2623 74.854 17.1676 74.705 17.105C74.5559 17.0425 74.3952 17.0137 74.234 17.0207C74.0715 17.0165 73.91 17.0467 73.76 17.1096C73.6098 17.1725 73.4746 17.2665 73.3629 17.3854C73.1313 17.6289 72.9801 17.9901 72.9093 18.469H75.4578Z" fill="white"/>
<path d="M77.9065 17.6664C77.9065 17.3332 77.8917 16.8259 77.8621 16.1448H79.1473C79.1697 16.3133 79.1911 16.5145 79.2114 16.7484C79.2316 16.9822 79.2455 17.1722 79.253 17.3182C79.3916 17.0822 79.5489 16.8578 79.7233 16.6475C79.8751 16.4677 80.0581 16.3174 80.2633 16.2039C80.4795 16.0871 80.7217 16.0281 80.9668 16.0326C81.151 16.029 81.3346 16.0518 81.5124 16.1L81.3399 17.3013C81.1953 17.2587 81.0451 17.2379 80.8946 17.2397C80.5939 17.2332 80.2985 17.3204 80.0487 17.4895C79.7477 17.7186 79.4864 17.9965 79.2757 18.312V22.2024H77.9065V17.6664Z" fill="white"/>
<path d="M82.3367 24.6808C82.1688 24.6534 82.0033 24.6131 81.8414 24.5601L82.0918 23.5497C82.1843 23.5758 82.3014 23.601 82.4424 23.6255C82.5747 23.649 82.7087 23.6611 82.8429 23.662C83.4513 23.662 83.9076 23.2671 84.2119 22.4772L84.3008 22.2529L82.0862 16.1446H83.5606L84.6738 19.5581C84.8184 19.9974 84.9354 20.4456 85.0244 20.8997C85.1283 20.4618 85.2506 20.0239 85.3913 19.586L86.521 16.1445H87.9065L85.6974 22.2806C85.5316 22.775 85.3055 23.2465 85.0244 23.6845C84.8095 24.016 84.5158 24.2881 84.1703 24.4761C83.8006 24.6576 83.393 24.7463 82.982 24.7345C82.7658 24.7355 82.5499 24.7176 82.3367 24.6808Z" fill="white"/>
<path d="M30.0489 6.15503H32.5273L32.4578 6.75889H30.7753V7.92843H32.3617V8.49433H30.7753V9.79021H32.5479L32.4866 10.4H30.0489V6.15503Z" fill="white"/>
<path d="M34.236 8.2335L32.9284 6.15503H33.7538L34.6397 7.68238L35.5724 6.15503H36.3747L35.0786 8.20724L36.4819 10.4H35.6457L34.6429 8.72901L33.6225 10.4H32.8207L34.236 8.2335Z" fill="white"/>
<path d="M37.017 6.15503H38.15C38.6829 6.15503 39.0906 6.26448 39.3731 6.48338C39.6556 6.70229 39.797 7.01891 39.7974 7.43325C39.8034 7.69205 39.7376 7.94739 39.6075 8.1705C39.4808 8.38016 39.2964 8.5482 39.0769 8.6542C38.8328 8.7705 38.5651 8.82821 38.2952 8.8228C38.1097 8.82021 37.925 8.80056 37.7431 8.76409V10.4H37.0168L37.017 6.15503ZM38.8391 8.05045C38.9185 7.97351 38.9805 7.88005 39.0206 7.77654C39.0608 7.67304 39.0782 7.56196 39.0716 7.45101C39.0716 7.18915 38.9926 7.00052 38.8349 6.88511C38.6772 6.7697 38.4451 6.71207 38.1387 6.71222H37.7437V8.21872C37.8819 8.24373 38.0217 8.25848 38.1621 8.26285C38.4585 8.26285 38.6841 8.19205 38.8391 8.05045Z" fill="white"/>
<path d="M40.5152 6.15503H41.2416V9.77269H42.9822L42.921 10.4H40.515L40.5152 6.15503Z" fill="white"/>
<path d="M44.0863 10.1918C43.7824 10.0183 43.5367 9.75749 43.3805 9.44244C43.2114 9.09382 43.1276 8.70943 43.1361 8.3214C43.1269 7.91449 43.2164 7.51147 43.3966 7.14734C43.5636 6.81835 43.8248 6.54764 44.1463 6.37037C44.5015 6.18062 44.8993 6.08624 45.3011 6.0963C45.6829 6.08562 46.0608 6.17698 46.3963 6.3611C46.6983 6.53364 46.9421 6.79351 47.0962 7.10718C47.2631 7.45406 47.3459 7.83604 47.3375 8.22154C47.3476 8.63299 47.2575 9.04065 47.075 9.40877C46.9072 9.73716 46.6462 10.0077 46.3253 10.1857C45.9737 10.3741 45.58 10.4681 45.182 10.4585C44.7998 10.4685 44.4219 10.3764 44.0863 10.1918ZM45.9694 9.67128C46.1743 9.53189 46.3332 9.33392 46.4258 9.10269C46.5306 8.83959 46.5819 8.55798 46.5768 8.2745C46.5814 7.99691 46.5362 7.72077 46.4432 7.45947C46.3611 7.23042 46.2124 7.03166 46.0166 6.88916C45.7934 6.73947 45.5288 6.66511 45.2609 6.67676C44.9949 6.66849 44.733 6.74374 44.5112 6.89214C44.3058 7.03612 44.1455 7.23654 44.0494 7.46962C43.9442 7.72241 43.8918 7.99431 43.8952 8.26844C43.8905 8.54996 43.94 8.82972 44.0407 9.09226C44.1291 9.32401 44.2838 9.52407 44.4852 9.667C44.7044 9.81337 44.9634 9.88718 45.2262 9.87801C45.4889 9.88635 45.748 9.81431 45.9694 9.67128Z" fill="white"/>
<path d="M48.1488 6.15503H49.4652C49.9454 6.15503 50.3091 6.2518 50.5564 6.44532C50.6794 6.5436 50.7773 6.67025 50.8418 6.81461C50.9061 6.95897 50.9353 7.11683 50.9267 7.27492C50.931 7.48085 50.8852 7.6847 50.7931 7.86851C50.7122 8.0292 50.5994 8.17136 50.4616 8.28613C50.3398 8.38795 50.2023 8.46921 50.0548 8.52677L51.3482 10.4H50.5051L49.4099 8.7172H48.8752V10.4H48.1488V6.15503ZM49.2876 8.16311C49.4497 8.16641 49.6102 8.13071 49.7558 8.05895C49.8871 7.99375 49.9971 7.89213 50.0731 7.76602C50.1503 7.63333 50.1894 7.4816 50.1861 7.32777C50.1934 7.23917 50.1789 7.15014 50.144 7.06853C50.109 6.98693 50.0546 6.91529 49.9857 6.85995C49.8111 6.7501 49.6068 6.69835 49.4016 6.712H48.8756V8.16311H49.2876Z" fill="white"/>
<path d="M51.9234 6.15503H54.4019L54.3323 6.75889H52.6497V7.92843H54.2361V8.49433H52.6497V9.79021H54.4228L54.3614 10.4H51.9234V6.15503Z" fill="white"/>
<path d="M57.0984 6.15503H57.8247V10.4H57.0984V6.15503Z" fill="white"/>
<path d="M59.7459 6.76761H58.441L58.505 6.15503H61.78L61.7127 6.76761H60.4722V10.4H59.7459V6.76761Z" fill="white"/>
<path d="M64.9322 10.1918C64.6284 10.0183 64.3826 9.7575 64.2264 9.44255C64.0572 9.09383 63.9734 8.70944 63.9819 8.3214C63.9727 7.91449 64.0622 7.51147 64.2424 7.14734C64.4094 6.81835 64.6706 6.54764 64.9921 6.37037C65.3473 6.18067 65.7449 6.08629 66.1466 6.0963C66.5285 6.08561 66.9063 6.17697 67.242 6.3611C67.5439 6.53364 67.7878 6.79351 67.942 7.10718C68.1087 7.45408 68.1914 7.83605 68.1831 8.22155C68.1933 8.63298 68.1032 9.04066 67.9207 9.40877C67.7529 9.73717 67.4918 10.0077 67.1709 10.1858C66.8193 10.374 66.4255 10.468 66.0275 10.4584C65.6456 10.4684 65.2677 10.3763 64.9322 10.1918ZM66.8152 9.67139C67.02 9.5319 67.1789 9.33392 67.2715 9.10269C67.3762 8.83959 67.4276 8.55798 67.4226 8.27451C67.4273 7.99691 67.3819 7.72077 67.2889 7.45947C67.2066 7.23035 67.0578 7.03159 66.8618 6.88916C66.6386 6.73947 66.374 6.66511 66.1061 6.67677C65.8402 6.6685 65.5782 6.74376 65.3563 6.89214C65.1509 7.03614 64.9906 7.23655 64.8947 7.46963C64.7895 7.72241 64.737 7.99431 64.7404 8.26844C64.7358 8.54996 64.7852 8.82972 64.8859 9.09226C64.9743 9.32412 65.129 9.52408 65.3304 9.66701C65.5496 9.81348 65.8086 9.88719 66.0714 9.87801C66.3343 9.88646 66.5937 9.81442 66.8152 9.67139Z" fill="white"/>
<path d="M68.9946 6.15503H69.8286L71.9088 9.4443C71.8915 9.13175 71.8828 8.84339 71.8827 8.5794V6.15503H72.5569V10.4H71.7491L69.6367 7.05745C69.6578 7.43678 69.6686 7.77293 69.6688 8.0659V10.4H68.9946V6.15503Z" fill="white"/>
<path fill-rule="evenodd" clip-rule="evenodd" d="M12.0866 6.12085C8.4305 6.12085 7.09314 7.47001 7.09314 11.1588V18.9894C7.09314 22.6782 8.4305 24.0274 12.0866 24.0274H19.8459C23.5021 24.0274 24.8419 22.6782 24.8419 18.9894V11.1588C24.8419 7.47001 23.5046 6.12085 19.8483 6.12085H12.0866ZM10.6079 15.0757H11.0782V17.4169H10.6079V16.4661H9.54485V17.4169H9.07396V15.0757H9.54485V16.0201H10.6079V15.0757ZM13.2602 16.4157C13.2602 16.7964 13.0729 16.9996 12.7326 16.9996C12.3907 16.9996 12.2022 16.79 12.2022 16.3995V15.077H11.7314V16.4157C11.7314 17.0742 12.0941 17.4518 12.7266 17.4518C13.3649 17.4518 13.7311 17.0671 13.7311 16.3962V15.0756H13.2608L13.2602 16.4157ZM18.7014 16.6855L18.1746 15.0756H17.7903L17.2635 16.6855L16.7508 15.0766H16.2497L17.0591 17.4168H17.4479L17.9756 15.8797L18.503 17.4168H18.8967L19.7035 15.0766H19.2154L18.7014 16.6855ZM20.5475 16.4097H21.4037V15.9834H20.5475V15.5041H21.7906V15.0774H20.083V17.4156H21.8354V16.9892H20.5475V16.4097ZM22.3966 17.4137H22.8613V15.0757H22.3967L22.3966 17.4137ZM14.6613 16.9282L14.4501 17.4157H13.9695L14.9917 15.0759H15.4073L16.4254 17.4157H15.9318L15.724 16.9282H14.6613ZM14.8362 16.5061H15.5481L15.191 15.6683L14.8362 16.5061ZM13.8794 11.2208C14.4332 11.7796 15.1842 12.0939 15.9674 12.0949C16.7508 12.0941 17.5018 11.7798 18.0558 11.221C18.6097 10.6621 18.9213 9.90454 18.9222 9.11421H18.5049C18.5049 9.7931 18.2376 10.4442 17.7617 10.9242C17.2859 11.4042 16.6406 11.6739 15.9676 11.6739C15.2947 11.6739 14.6494 11.4042 14.1736 10.9242C13.6978 10.4442 13.4305 9.7931 13.4305 9.11421H13.0131C13.0141 9.90444 13.3256 10.662 13.8794 11.2208Z" fill="white"/>
</svg>
