<svg width="94" height="27" viewBox="0 0 94 27" fill="none" xmlns="http://www.w3.org/2000/svg">
<path fill-rule="evenodd" clip-rule="evenodd" d="M25.2946 10.1682C24.0032 10.9878 23.366 12.1375 23.4679 13.6709C23.5697 15.2043 24.4005 16.2395 25.7359 16.919C25.668 17.109 25.6055 17.2966 25.5353 17.481C25.2241 18.2821 24.809 19.038 24.301 19.729C24.0572 20.086 23.7833 20.4212 23.4825 20.7308C23.3027 20.9109 23.1013 21.0678 22.8831 21.1978C22.4203 21.4648 21.9273 21.5091 21.4136 21.3963C21.0494 21.3184 20.7108 21.1667 20.3652 21.0359C19.955 20.8708 19.517 20.7873 19.0754 20.7899C18.6853 20.8037 18.2999 20.8802 17.9336 21.0164C17.6613 21.113 17.3936 21.2211 17.1221 21.3192C16.8076 21.4376 16.472 21.488 16.137 21.4671C15.8482 21.4399 15.571 21.3389 15.3316 21.1737C14.9635 20.9273 14.6369 20.623 14.3642 20.2723C13.9178 19.7291 13.5203 19.147 13.1762 18.5326C12.8174 17.8677 12.5271 17.1674 12.3099 16.4427C12.1538 15.9301 12.0362 15.4063 11.9582 14.8758C11.902 14.4303 11.8762 13.9814 11.881 13.5323C11.8682 12.9101 11.9536 12.2897 12.134 11.6946C12.5406 10.4056 13.2997 9.41237 14.534 8.83559C14.9637 8.63998 15.425 8.52447 15.8955 8.49466C16.4942 8.44796 17.0442 8.62776 17.5927 8.82469C17.9213 8.943 18.2515 9.0582 18.5801 9.1773C18.7966 9.25395 19.0333 9.24925 19.2466 9.16406C19.6992 8.99905 20.1533 8.8387 20.609 8.68303C21.1052 8.50011 21.6326 8.41913 22.1603 8.44484C22.702 8.47808 23.2335 8.60801 23.7302 8.82858C24.1478 9.01543 24.5272 9.27942 24.8487 9.60696C25.0198 9.77471 25.1696 9.96322 25.2946 10.1682Z" fill="white"/>
<path fill-rule="evenodd" clip-rule="evenodd" d="M18.7853 8.28224C18.7515 8.08848 18.7453 7.89087 18.7668 7.69534C18.8215 6.93408 19.137 6.28258 19.6068 5.69802C20.1576 5.0146 20.8751 4.60051 21.7082 4.37789C21.8625 4.33741 22.0168 4.29149 22.1888 4.3343C22.1958 4.35985 22.2009 4.38586 22.2042 4.41214C22.255 5.25078 22.0204 6.08176 21.5393 6.76751C21.2308 7.23732 20.8233 7.63256 20.3459 7.92496C19.8751 8.20479 19.3296 8.32966 18.7853 8.28224Z" fill="white"/>
<path d="M51.4466 15.6199C51.0745 14.6039 50.2168 13.9251 49.066 13.9885C48.333 14.0289 47.7307 14.3299 47.2866 14.9391C47.2481 14.992 47.2096 15.0429 47.1437 15.1301C47.1224 14.7648 47.1041 14.443 47.0849 14.1161H46.145C46.2221 16.9089 46.1582 19.6831 46.1876 22.4717H47.2289V20.5424C47.2289 20.3348 47.2289 20.12 47.2289 19.9083C47.2289 19.6966 47.2289 19.4931 47.2339 19.241C47.2927 19.3136 47.3201 19.3447 47.3434 19.3748C47.6029 19.7265 47.9728 19.976 48.3908 20.0816C49.4837 20.3795 50.7957 19.9498 51.3675 18.6286C51.7895 17.6778 51.818 16.5927 51.4466 15.6199ZM50.4581 18.1274C50.2644 18.667 49.9319 19.0718 49.3762 19.2441C48.5363 19.5282 47.6289 19.0711 47.3363 18.2166C47.2788 18.0075 47.2448 17.7923 47.2349 17.5752C47.2273 17.4255 47.2273 17.2755 47.2349 17.1258C47.2349 16.7989 47.2187 16.471 47.316 16.1534C47.5188 15.4746 47.9416 15.0118 48.6392 14.882C49.2617 14.7637 49.7808 14.9775 50.1742 15.4871C50.4288 15.8323 50.5812 16.2451 50.6132 16.6765C50.6723 17.1659 50.6191 17.6626 50.4581 18.1274Z" fill="white"/>
<path d="M44.8432 16.5168C44.7971 16.0603 44.659 15.6186 44.4377 15.2195C43.5191 13.5465 41.2784 13.6627 40.4177 14.9994C40.3863 15.0413 40.3524 15.0812 40.3163 15.1188C40.298 14.7649 40.2818 14.4473 40.2656 14.1245H39.3247C39.4038 16.9132 39.3409 19.6874 39.3703 22.4729H40.4156V19.2971L40.4592 19.2857C40.6398 19.5582 40.886 19.7784 41.174 19.925C41.607 20.1459 42.0966 20.2224 42.5742 20.144C43.5749 19.9956 44.2451 19.4113 44.6182 18.4637C44.8476 17.8433 44.9248 17.1748 44.8432 16.5168ZM43.66 18.0517C43.6076 18.2205 43.5355 18.3822 43.4451 18.5333C43.071 19.1487 42.5083 19.3916 41.8229 19.3002C41.1568 19.211 40.7076 18.8125 40.4947 18.1586C40.4488 17.9894 40.4229 17.8152 40.4177 17.6397C40.4055 17.4768 40.4177 17.3128 40.4177 17.099C40.4227 16.8032 40.3913 16.4545 40.5028 16.1162C40.7239 15.4488 41.1477 15.0067 41.8361 14.8822C42.3726 14.7721 42.925 14.9712 43.2758 15.4011C43.5467 15.7236 43.7188 16.1207 43.7706 16.5427C43.8537 17.0475 43.8157 17.5653 43.66 18.0517Z" fill="white"/>
<path d="M35.4862 11.7842H34.2148C33.3016 14.5324 32.3891 17.2837 31.4773 20.0381H32.5632L33.3996 17.4528H36.2638C36.5507 18.3163 36.8377 19.1788 37.1276 20.0474C37.3203 20.0474 37.4997 20.0474 37.6782 20.0474C37.8566 20.0474 38.0432 20.0537 38.247 20.0402C37.3162 17.266 36.4007 14.523 35.4862 11.7842ZM33.6227 16.5987C34.015 15.3201 34.4997 14.084 34.7927 12.7919C34.8041 12.7905 34.8157 12.7905 34.8271 12.7919C34.8332 12.7919 34.8413 12.7971 34.8424 12.8023C35.1577 14.084 35.6281 15.3149 36.0337 16.5977L33.6227 16.5987Z" fill="white"/>
<path fill-rule="evenodd" clip-rule="evenodd" d="M55.1818 19.6541C55.274 19.3428 55.3582 19.0584 55.4484 18.7574C55.5123 18.7875 55.5599 18.8083 55.6045 18.8322C56.2058 19.1656 56.8872 19.3174 57.5694 19.2701C57.8497 19.2525 58.1228 19.1721 58.3694 19.0345C59.1805 18.5769 59.1876 17.4321 58.6543 16.9257C58.493 16.7731 58.3139 16.6417 58.121 16.5344C57.8783 16.4074 57.6284 16.2951 57.3728 16.1981C56.9659 16.0473 56.5803 15.8422 56.2261 15.5879C55.8371 15.3144 55.5535 14.9107 55.4241 14.4463C55.1906 13.5694 55.5326 12.6381 56.2727 12.136C56.6858 11.8553 57.1646 11.6923 57.6597 11.6638C58.259 11.6074 58.8631 11.6872 59.4289 11.8973C59.5404 11.9399 59.6459 11.9949 59.7716 12.052C59.6702 12.3488 59.581 12.63 59.4836 12.9258L59.2535 12.822C58.6874 12.5561 58.0541 12.4784 57.4427 12.5999C56.954 12.7037 56.585 12.9798 56.4582 13.5018C56.3568 13.9273 56.438 14.3228 56.7533 14.632C56.9084 14.7813 57.0823 14.9087 57.2704 15.0108C57.5311 15.147 57.7985 15.2696 58.0713 15.3782C58.4963 15.5403 58.898 15.7603 59.2657 16.0321C59.6644 16.327 59.9425 16.7624 60.0463 17.2546C60.2593 18.3122 59.8436 19.3967 58.7435 19.8876C58.1403 20.1554 57.5076 20.2094 56.8628 20.1544C56.4167 20.1222 55.9786 20.017 55.565 19.843C55.4383 19.789 55.3217 19.7237 55.1818 19.6541Z" fill="white"/>
<path d="M70.5359 16.2531C70.3331 15.2578 69.7927 14.5282 68.8427 14.1649C68.3645 13.9853 67.8488 13.9359 67.3463 14.0217C66.3243 14.1826 65.5821 14.7326 65.1826 15.7144C64.8372 16.5474 64.8133 17.4836 65.1157 18.3339C65.3854 19.1913 66.068 19.8457 66.9214 20.065C67.3529 20.1908 67.8071 20.2111 68.2476 20.1242C69.3051 19.9197 70.0513 19.3209 70.4203 18.2706C70.5498 17.874 70.6212 17.4599 70.6322 17.0418C70.6028 16.7782 70.5907 16.5115 70.5359 16.2531ZM69.3051 18.225C69.2076 18.4647 69.0658 18.6828 68.8874 18.8674C68.5834 19.1919 68.1605 19.3711 67.7214 19.3612C67.2823 19.3513 66.8674 19.1534 66.5777 18.8155C66.2682 18.4543 66.0749 18.0042 66.0242 17.5265C66.0049 17.3853 65.9978 17.2421 65.9887 17.1383C66.0049 16.5966 66.0901 16.1098 66.3375 15.6667C66.6901 15.0007 67.4383 14.6634 68.1563 14.8468C68.5112 14.9267 68.8251 15.1372 69.0384 15.4384C69.2682 15.758 69.4191 16.1297 69.4784 16.5219C69.585 17.0936 69.5247 17.6849 69.3051 18.2218V18.225Z" fill="white"/>
<path d="M80.4141 17.2786C80.4141 17.0243 80.4344 16.7929 80.4232 16.5635C80.4083 16.0016 80.245 15.4543 79.9508 14.9797C79.7024 14.5692 79.3187 14.2632 78.869 14.1173C77.775 13.7644 76.3829 14.0685 75.7047 15.4198C75.2492 16.3081 75.1636 17.347 75.4674 18.3008C75.7533 19.2515 76.3941 19.8576 77.339 20.0735C78.2314 20.2711 79.1611 20.1908 80.0086 19.8431C80.0402 19.8274 80.0707 19.8094 80.0998 19.7891C80.039 19.5348 79.9802 19.2889 79.9214 19.0387C79.8871 19.0465 79.8532 19.0562 79.82 19.0678C79.34 19.2566 78.8284 19.3469 78.3144 19.3335C78.0272 19.3356 77.7419 19.2853 77.4718 19.1851C76.7865 18.9266 76.2978 18.2178 76.3454 17.2786H80.4141ZM76.3312 16.495C76.3485 16.3912 76.3596 16.304 76.3789 16.22C76.4451 15.9055 76.5792 15.6101 76.7713 15.3554C77.1884 14.8002 77.9209 14.6064 78.5486 14.8853C78.6892 14.947 78.8179 15.0338 78.9288 15.1417C79.2989 15.5059 79.3942 15.9781 79.4114 16.4908L76.3312 16.495Z" fill="white"/>
<path fill-rule="evenodd" clip-rule="evenodd" d="M62.7371 14.1079H64.2184V14.9382H62.7381C62.7381 15.0295 62.728 15.096 62.728 15.1624C62.728 16.1379 62.728 17.1146 62.728 18.0901C62.7265 18.2943 62.7456 18.4981 62.7848 18.6983C62.8669 19.0927 63.1011 19.2805 63.4945 19.2805C63.6973 19.2805 63.9 19.2567 64.1261 19.2432C64.1424 19.4985 64.1586 19.7548 64.1748 20.0195C64.1321 20.0416 64.0881 20.061 64.043 20.0776C63.6952 20.1784 63.3311 20.207 62.9723 20.1616C62.2768 20.0745 61.851 19.6427 61.7435 18.9162C61.7116 18.6869 61.6953 18.4556 61.6949 18.224C61.6898 17.2142 61.6949 16.2033 61.6949 15.1935V14.9382H60.7986V14.1152C61.0865 14.0965 61.3765 14.1152 61.6878 14.1027V12.684L62.7128 12.4038C62.7483 12.9798 62.7148 13.5351 62.7371 14.1079Z" fill="white"/>
<path fill-rule="evenodd" clip-rule="evenodd" d="M74.7861 14.0134V15.0295C74.6716 15.0222 74.5672 15.0118 74.4637 15.0108C74.0211 14.9958 73.6013 15.2115 73.3485 15.5837C73.1249 15.9097 72.9984 16.295 72.9845 16.6931C72.9703 16.9007 72.9754 17.1155 72.9754 17.3262C72.9754 18.1516 72.9754 18.977 72.9754 19.8025V20.035H71.9321C71.924 18.0631 71.9148 16.0912 71.9067 14.1193H72.7959C72.8466 14.4991 72.7959 14.879 72.8689 15.2557C73.0889 14.7368 73.3982 14.3217 73.9193 14.1016C74.1933 13.9847 74.495 13.954 74.7861 14.0134Z" fill="white"/>
<path d="M89.56 1H4.24C2.4506 1 1 2.4506 1 4.24V22.6C1 24.3894 2.4506 25.84 4.24 25.84H89.56C91.3494 25.84 92.8 24.3894 92.8 22.6V4.24C92.8 2.4506 91.3494 1 89.56 1Z" stroke="white" stroke-width="1.08"/>
<path d="M36.4299 6.60404C36.3917 5.86862 35.9708 5.39288 35.2471 5.26149C34.8587 5.19112 34.4696 5.21354 34.0806 5.25464C34.0124 5.26149 33.9448 5.27394 33.8735 5.28391V8.34698C34.0781 8.35694 34.2751 8.3694 34.4715 8.37563C34.7262 8.38669 34.9814 8.36577 35.2308 8.31335C35.7118 8.20563 36.0821 7.95592 36.2835 7.49326C36.4015 7.21234 36.4517 6.90776 36.4299 6.60404ZM35.937 7.24667C35.8347 7.60994 35.5459 7.89153 35.1789 7.98581C34.8981 8.06863 34.6097 8.05369 34.3226 8.03501C34.3058 8.03135 34.2896 8.02526 34.2745 8.01695V5.57907C34.337 5.56973 34.3996 5.5579 34.4584 5.55167C34.6953 5.52147 34.9358 5.53264 35.1689 5.58467C35.6236 5.69302 35.8982 5.97635 35.982 6.43342C36.0333 6.70417 36.0176 6.98328 35.9364 7.24667H35.937Z" fill="white"/>
<path fill-rule="evenodd" clip-rule="evenodd" d="M41.8415 6.13326H42.2468C42.0054 6.87739 41.7671 7.61094 41.5288 8.34697H41.1466C40.9671 7.77097 40.787 7.19435 40.6031 6.6034C40.4567 7.19746 40.2365 7.7635 40.0451 8.34323H39.6698C39.4484 7.61405 39.2251 6.87988 38.9968 6.1289C39.0763 6.1289 39.1438 6.12517 39.2107 6.12454C39.2777 6.12392 39.3415 6.12454 39.4178 6.12454L39.8831 7.92291L40.4461 6.13202H40.8007C40.8933 6.42905 40.9884 6.72545 41.0778 7.02248C41.1673 7.31951 41.2529 7.61031 41.3493 7.93225C41.3905 7.7635 41.425 7.61716 41.4631 7.47145C41.5013 7.32574 41.5463 7.17193 41.5882 7.02248C41.6301 6.87303 41.6714 6.73106 41.7133 6.58659C41.7552 6.44212 41.7971 6.28832 41.8415 6.13326Z" fill="white"/>
<path d="M52.0789 5.09204V6.39536C52.0614 6.38422 52.0449 6.37173 52.0294 6.358C51.8162 6.10891 51.5391 6.04104 51.2282 6.09335C50.8529 6.15562 50.6121 6.38726 50.4776 6.73037C50.3528 7.04951 50.3447 7.40215 50.4545 7.7267C50.509 7.89943 50.609 8.05446 50.7441 8.17566C51.1238 8.5194 51.7768 8.45713 52.0545 8.05112C52.0658 8.03121 52.0754 8.01038 52.0832 7.98885L52.1139 8.01065C52.1214 8.119 52.1289 8.22673 52.137 8.33944C52.2512 8.3513 52.3663 8.3513 52.4804 8.33944V5.09204H52.0789ZM52.0595 7.55172C52.0219 7.81224 51.8197 8.01883 51.5591 8.06296C51.2905 8.11752 51.0193 7.98189 50.903 7.73479C50.7437 7.41757 50.7488 7.04315 50.9167 6.73037C51.0342 6.48421 51.3031 6.34718 51.5724 6.39617C51.8417 6.44515 52.0445 6.66796 52.067 6.9396C52.0795 7.03674 52.0776 7.13575 52.0832 7.25095C52.0751 7.34 52.0751 7.4471 52.0595 7.55172Z" fill="white"/>
<path fill-rule="evenodd" clip-rule="evenodd" d="M61.9233 8.34328H61.5179V5.09277H61.9201V6.46272C61.9564 6.42349 61.9739 6.40481 61.9908 6.38488C62.1645 6.16955 62.4352 6.05559 62.7114 6.08163C62.9853 6.09577 63.2266 6.26534 63.3318 6.51752C63.3945 6.65612 63.4267 6.80642 63.4263 6.95839C63.43 7.40051 63.4263 7.84201 63.4263 8.28412C63.4263 8.29969 63.4219 8.31588 63.4188 8.34079H63.0147V8.20566C63.0147 7.84512 63.0147 7.4852 63.0147 7.12528C63.016 7.01907 63.006 6.91302 62.9847 6.80894C62.9096 6.47517 62.5957 6.3195 62.2804 6.46023C62.0657 6.54186 61.9246 6.74767 61.9264 6.97645C61.9195 7.38121 61.9264 7.78596 61.9264 8.19134L61.9233 8.34328Z" fill="white"/>
<path d="M47.9812 6.91718C47.8968 6.53982 47.6829 6.2677 47.3088 6.13568C47.1648 6.08556 47.0118 6.06625 46.8597 6.07902C46.41 6.11202 46.0835 6.32374 45.9109 6.74531C45.8192 6.97909 45.7928 7.23322 45.8346 7.48072C45.9096 8.00317 46.2887 8.35936 46.8172 8.39859C47.3739 8.43968 47.8436 8.10716 47.9725 7.57413C47.9947 7.46045 48.0112 7.34572 48.0219 7.2304C48.0081 7.11955 48.0013 7.01619 47.9812 6.91718ZM47.4446 7.78896C47.1794 8.20306 46.6277 8.20617 46.3775 7.78273C46.1611 7.41783 46.1755 7.03549 46.3894 6.67432C46.5058 6.49111 46.7102 6.38209 46.9279 6.38706C47.1457 6.39203 47.3448 6.51027 47.4527 6.69861C47.5463 6.8633 47.5938 7.04994 47.5903 7.23911C47.5958 7.43155 47.5452 7.62145 47.4446 7.78585V7.78896Z" fill="white"/>
<path d="M38.878 6.98319C38.8155 6.5473 38.5259 6.21477 38.1137 6.11576C37.982 6.08371 37.846 6.07257 37.7108 6.08276C37.2618 6.12137 36.9446 6.34928 36.7808 6.77396C36.7218 6.9273 36.6964 7.09141 36.7063 7.25531C36.7063 7.30388 36.7032 7.3537 36.7063 7.40227C36.7284 7.94318 37.1638 8.37666 37.7071 8.39859C38.2557 8.45098 38.755 8.08119 38.8624 7.543C38.9028 7.35902 38.9081 7.16912 38.878 6.98319ZM38.3576 7.73043C38.2388 7.96332 38.0449 8.09783 37.774 8.09285C37.5897 8.08992 37.4174 8.00148 37.308 7.85373C37.1761 7.68029 37.1077 7.46717 37.1141 7.24971C37.1099 7.07154 37.1498 6.89509 37.2305 6.73598C37.3351 6.51415 37.5631 6.37628 37.809 6.38602C38.0471 6.3808 38.2644 6.52003 38.3582 6.73784C38.5216 7.04854 38.5214 7.41932 38.3576 7.72981V7.73043Z" fill="white"/>
<path d="M56.1501 6.98074C56.07 6.54485 55.8373 6.24222 55.3995 6.11581C55.2648 6.07789 55.124 6.06605 54.9848 6.08094C54.5363 6.1264 54.2186 6.35119 54.0566 6.7765C53.9978 6.92988 53.9726 7.094 53.9828 7.25785C53.9828 7.30704 53.9796 7.35623 53.9828 7.40481C54.0048 7.94571 54.4402 8.37919 54.9835 8.40113C55.5323 8.45233 56.0308 8.08146 56.1369 7.54305C56.18 7.35849 56.1844 7.16709 56.1501 6.98074ZM55.6234 7.74542C55.4921 8.02054 55.1771 8.15713 54.8853 8.06549C54.7312 8.01552 54.6016 7.90944 54.5226 7.76846C54.4324 7.6143 54.386 7.4387 54.3881 7.26034C54.3831 7.08086 54.422 6.90287 54.5013 6.74163C54.6036 6.51897 54.8297 6.37875 55.0755 6.38544C55.3181 6.37697 55.5407 6.51911 55.6341 6.74225C55.7983 7.05759 55.7943 7.4336 55.6234 7.74542Z" fill="white"/>
<path d="M65.7851 7.30767C65.8214 6.96767 65.7694 6.66193 65.568 6.39105C65.4613 6.24709 65.3058 6.14662 65.1302 6.10834C64.6573 5.9975 64.1551 6.17061 63.928 6.70053C63.8133 6.97459 63.7851 7.27695 63.8473 7.56734C63.9318 8.00323 64.2276 8.30337 64.6605 8.37685C64.9701 8.42995 65.2884 8.40073 65.5831 8.29216C65.6098 8.28072 65.6357 8.26741 65.6606 8.25231L65.5912 7.97209C65.5455 7.98766 65.5111 8.00074 65.4761 8.01132C65.2526 8.0837 65.0151 8.10206 64.7831 8.06488C64.4227 8.00137 64.1753 7.66806 64.2201 7.30642L65.7851 7.30767ZM64.6799 6.39167C64.9982 6.30263 65.2809 6.45768 65.3679 6.77401C65.3879 6.84625 65.3935 6.92284 65.4079 7.0069H64.2283C64.242 6.71735 64.4315 6.46204 64.6799 6.39167Z" fill="white"/>
<path fill-rule="evenodd" clip-rule="evenodd" d="M56.9513 6.48004C56.9882 6.43147 57.0045 6.40843 57.0226 6.38663C57.2582 6.10387 57.6484 6.00152 57.9934 6.13195C58.2767 6.24466 58.4162 6.47007 58.4694 6.75465C58.4847 6.8391 58.4922 6.92477 58.4919 7.01058C58.4919 7.41596 58.4919 7.82009 58.4919 8.2261C58.4919 8.26159 58.4881 8.29771 58.4856 8.3413H58.0797V8.20181C58.0797 7.84189 58.0797 7.48134 58.0797 7.12142C58.0809 7.01926 58.0717 6.91723 58.0522 6.81692C57.9765 6.46696 57.6418 6.30879 57.3197 6.4707C57.1195 6.56208 56.9911 6.76137 56.9913 6.98069C56.9845 7.32442 56.9913 7.66566 56.9882 8.01189C56.9882 8.11837 56.9882 8.22423 56.9882 8.34005H56.5773V6.13257H56.9182C56.9288 6.24217 56.9382 6.34616 56.9513 6.48004Z" fill="white"/>
<path d="M50.0029 7.64511C50.0029 7.43651 50.0029 7.2279 50.0029 7.02241C50.0023 6.92824 49.9954 6.83421 49.9822 6.74095C49.9334 6.40407 49.7283 6.17242 49.4155 6.10828C49.1063 6.04412 48.7844 6.08558 48.5017 6.22597C48.4697 6.24339 48.4388 6.26273 48.4091 6.28389C48.4417 6.37293 48.4717 6.45264 48.5017 6.53733C48.5455 6.5174 48.578 6.50183 48.6112 6.48751C48.7935 6.39965 48.9975 6.36613 49.1985 6.39099C49.4787 6.43271 49.6195 6.62824 49.5801 6.92776C49.49 6.93212 49.4074 6.92776 49.3299 6.94084C49.1793 6.9591 49.0298 6.98529 48.882 7.0193C48.7168 7.05887 48.5654 7.14238 48.4442 7.26091C48.1358 7.56105 48.1646 8.23357 48.7194 8.37492C49.0113 8.45746 49.3252 8.37783 49.5419 8.16632C49.5682 8.14265 49.5932 8.11775 49.6288 8.0835C49.6439 8.18064 49.6564 8.26346 49.6682 8.34254C49.7842 8.36542 49.9037 8.36287 50.0185 8.33507C50.0129 8.10155 50.006 7.87302 50.0029 7.64511ZM49.6051 7.60526C49.5906 7.76269 49.5081 7.90609 49.379 7.99823C49.25 8.09036 49.0871 8.12216 48.9327 8.08536C48.8034 8.06327 48.701 7.96432 48.675 7.83628C48.61 7.62218 48.7215 7.39436 48.9308 7.31321C49.1455 7.22973 49.377 7.19835 49.6063 7.22168C49.6063 7.35307 49.6145 7.4801 49.6051 7.60526Z" fill="white"/>
<path fill-rule="evenodd" clip-rule="evenodd" d="M44.4504 8.34331H44.0564V8.20881C44.0564 7.85325 44.0595 7.49706 44.0564 7.14087C44.0575 7.02653 44.0454 6.91244 44.0201 6.80088C43.9344 6.4559 43.591 6.31019 43.2758 6.47956C43.1157 6.56168 43.0039 6.71428 42.9743 6.89117C42.9626 6.95966 42.9572 7.02906 42.958 7.09853C42.958 7.47527 42.958 7.85138 42.958 8.22811C42.958 8.26423 42.9549 8.30035 42.953 8.34394H42.5527V6.12961C42.6665 6.12309 42.7807 6.12455 42.8942 6.13396C42.903 6.24231 42.9118 6.34631 42.9218 6.47271C42.9574 6.43224 42.9774 6.41044 42.9968 6.3874C43.2209 6.11825 43.5864 6.01092 43.9213 6.11591C44.1157 6.17613 44.275 6.31616 44.3591 6.50074C44.4214 6.62593 44.4549 6.76333 44.4573 6.903C44.4605 7.36505 44.4573 7.82772 44.4573 8.28976C44.4565 8.30777 44.4542 8.32568 44.4504 8.34331Z" fill="white"/>
<path fill-rule="evenodd" clip-rule="evenodd" d="M61.199 6.12384V6.43519H60.6286C60.6229 6.46984 60.6192 6.50476 60.6173 6.53981C60.6173 6.90409 60.6173 7.26837 60.6173 7.63265C60.6159 7.69397 60.6205 7.75529 60.6311 7.81572C60.668 8.00254 60.7618 8.07352 60.9507 8.06481C61.0132 8.06481 61.0802 8.0536 61.1571 8.04675C61.1621 8.147 61.1658 8.24352 61.1708 8.34938C60.9538 8.40729 60.7449 8.4322 60.5379 8.34938C60.3883 8.29146 60.2804 8.15946 60.2539 8.00191C60.2293 7.86941 60.2165 7.73501 60.2157 7.60027C60.2107 7.26463 60.2157 6.929 60.2157 6.59336V6.44204H59.8761V6.13069H60.2132V5.59517L60.6142 5.48682V6.12384H61.199Z" fill="white"/>
<path fill-rule="evenodd" clip-rule="evenodd" d="M45.3912 8.34695H45.0034V5.08398H45.2774C45.313 5.08398 45.3487 5.08834 45.3912 5.09146V8.34695Z" fill="white"/>
</svg>
