<svg width="40" height="40" viewBox="0 0 40 40" fill="none" xmlns="http://www.w3.org/2000/svg">
<path d="M9.64855 1.09839C9.43571 1.31122 9.43571 1.31911 9.48301 2.11527C9.75102 6.47446 12.5258 10.1794 16.5933 11.6219C18.0122 12.1185 18.493 12.1895 21.0313 12.2289L23.3331 12.2683V16.6984V21.1207L22.9311 21.2153C21.9615 21.4518 21.1338 21.9878 20.448 22.8313C20.2115 23.1308 19.9198 23.4146 19.8016 23.4777C19.6833 23.5328 19.234 23.6038 18.8005 23.6274C18.3039 23.659 17.8309 23.7378 17.5235 23.8403C16.5933 24.1635 15.6631 24.9123 15.1665 25.7243L14.9379 26.1105L14.3861 26.1657C13.4796 26.2524 12.8174 26.4022 11.0596 26.9067L9.38841 27.3875H4.88734H0.386257L0.19707 27.5846L0 27.7738V33.6938V39.6137L0.19707 39.8029L0.386257 40H3.15312H5.91998L6.10917 39.8029C6.27471 39.6453 6.30624 39.5349 6.30624 39.1723V38.7388H8.00104C9.70373 38.7388 9.70373 38.7388 9.89291 38.5417C10.0427 38.3998 10.09 38.2658 10.09 38.0293C10.09 37.7534 10.1136 37.714 10.2319 37.7455C17.4368 39.9685 17.555 40 18.4852 40C19.6361 40 19.8883 39.9133 29.056 36.2399C37.5142 32.8661 37.8453 32.7242 38.2237 32.3695C38.4602 32.1487 38.7045 31.8098 38.8386 31.526C39.0277 31.124 39.0593 30.9505 39.0593 30.383C39.0593 29.8233 39.0277 29.642 38.8464 29.2636C38.4129 28.3335 37.4906 27.7186 36.4106 27.6477C35.8352 27.6082 35.7958 27.5925 35.7485 27.3954C35.6618 27.0407 35.173 26.3785 34.7789 26.0869C34.3375 25.7558 33.5571 25.4956 33.0132 25.4956C32.6427 25.4956 32.6111 25.4799 32.1934 25.0306C31.3578 24.124 30.4197 23.6984 29.1269 23.6274C28.6934 23.6038 28.2441 23.5328 28.1258 23.4777C28.0076 23.4146 27.7159 23.1308 27.4794 22.8313C26.7936 21.9878 25.9659 21.4518 24.9964 21.2153L24.5943 21.1207V20.159V19.1973L25.0121 19.3865C25.6743 19.6939 26.3049 19.82 27.1168 19.82C28.0391 19.82 28.6067 19.686 29.4817 19.2525C30.0808 18.9608 30.2778 18.7953 31.4681 17.6207C32.6742 16.4304 32.7924 16.2885 32.7924 16.0442C32.7924 15.8156 32.7215 15.7052 32.3983 15.3978C31.9253 14.9563 30.9715 14.444 30.2778 14.2627C29.6157 14.0971 28.4017 14.0971 27.7396 14.2627C26.8961 14.4834 26.0921 14.9563 25.3038 15.6973L24.5943 16.3674V14.3178V12.2762L25.6427 12.221C26.8015 12.1658 27.5504 12.0397 28.4884 11.7323C32.7057 10.3764 35.6381 6.58482 35.914 2.1468C35.9692 1.31122 35.9692 1.31122 35.7564 1.09839L35.5435 0.885551L32.8082 0.924965C29.8916 0.964378 29.6709 0.988029 28.2598 1.42947C26.3285 2.02856 24.2711 3.46323 23.1045 5.01614C22.9153 5.26839 22.734 5.47334 22.7025 5.47334C22.6709 5.47334 22.4896 5.26839 22.3004 5.01614C21.189 3.54205 19.305 2.17833 17.4604 1.53194C15.9706 1.01168 15.6079 0.964378 12.5967 0.924965L9.86138 0.885551L9.64855 1.09839ZM15.7892 2.35175C19.1867 3.14791 21.8117 5.50487 22.8522 8.6974C23.0414 9.28073 23.2779 10.4001 23.2385 10.5183C23.207 10.6129 21.1495 9.66699 20.1248 9.09155C18.5088 8.17714 16.7746 6.65576 15.6158 5.13438C15.2926 4.71659 15.0167 4.36975 15.001 4.36975C14.9221 4.36975 14.0314 5.01614 14.0314 5.07132C14.0314 5.22109 15.1507 6.60058 15.8838 7.35733C17.1766 8.68952 18.4457 9.64334 20.1248 10.5341L21.0077 10.9992L19.9435 10.9598C17.3816 10.8731 15.2847 9.97442 13.5111 8.20079C11.9424 6.63211 11.0911 4.85848 10.76 2.48576L10.7127 2.1468L12.983 2.18621C14.6778 2.21774 15.3872 2.25716 15.7892 2.35175ZM34.637 2.49364C34.3138 4.85848 33.4625 6.61634 31.8938 8.20079C30.5616 9.54086 28.9851 10.3922 27.1011 10.8021C26.4389 10.944 24.5943 11.0465 24.5943 10.944C24.5943 10.9046 24.9254 10.7075 25.3274 10.5026C26.833 9.73793 28.2441 8.68164 29.5211 7.35733C30.2542 6.60058 31.3735 5.22109 31.3735 5.07132C31.3735 5.01614 30.4828 4.36975 30.404 4.36975C30.3882 4.36975 30.1123 4.71659 29.7891 5.13438C28.4806 6.85283 26.6044 8.43727 24.7678 9.36744C24.4603 9.5251 24.3578 9.54875 24.3578 9.46204C24.3578 9.24132 23.9479 7.94065 23.6878 7.34945L23.4277 6.74247L23.8218 6.16703C24.3894 5.34721 25.6191 4.18056 26.431 3.66818C26.8094 3.43958 27.4321 3.11638 27.8184 2.95084C29.261 2.3281 30.1754 2.17833 32.7373 2.17045L34.6843 2.16256L34.637 2.49364ZM30.2069 15.5712C30.4513 15.65 30.7823 15.7919 30.94 15.8865L31.2316 16.0599L30.3409 16.9507C29.0718 18.2198 28.3623 18.5746 27.0774 18.5667C26.3916 18.5667 25.7295 18.3932 25.1855 18.0779L24.8939 17.9045L25.7137 17.0768C26.8646 15.918 27.5189 15.5239 28.5121 15.4135C29.1269 15.3426 29.6709 15.3978 30.2069 15.5712ZM25.3432 22.6894C25.895 22.9653 26.1472 23.186 26.8173 24.0137C27.2824 24.5812 27.7948 24.7941 28.8905 24.865C29.663 24.9202 29.8758 24.9675 30.2936 25.1646C30.9006 25.4641 31.3893 25.8583 31.2159 25.9213C31.1528 25.945 29.4344 26.4574 27.4085 27.0564L23.7193 28.16L23.3094 27.9393C23.0335 27.7895 21.9615 27.49 19.9829 27.0091C18.3827 26.615 16.9086 26.2682 16.7115 26.2288L16.3647 26.1657L16.6642 25.8267C16.8455 25.6297 17.2003 25.3774 17.5392 25.2119C18.0516 24.9596 18.1935 24.9281 19.0212 24.8729C20.1406 24.7941 20.6451 24.5812 21.1101 24.0137C21.7329 23.2412 22.0088 22.9889 22.4581 22.7524C23.0808 22.4135 23.4198 22.3425 24.1529 22.3819C24.6732 22.4056 24.8702 22.4529 25.3432 22.6894ZM33.699 26.9067C34.0616 27.0643 34.503 27.5294 34.574 27.829C34.6055 27.9393 34.6134 28.0339 34.5976 28.0497C34.5818 28.0654 33.0053 28.6251 31.0976 29.3109L27.6292 30.5406H26.0921H24.5549L24.547 29.8864L24.5392 29.2321L28.6461 27.9945C30.9006 27.3245 32.8949 26.7648 33.0683 26.7648C33.2418 26.7648 33.5255 26.8278 33.699 26.9067ZM16.3726 27.4742C16.7115 27.5215 18.2644 27.8763 19.8252 28.2625C22.0088 28.8064 22.7182 29.0193 22.9153 29.169C23.3725 29.5159 23.4513 30.2647 23.0808 30.7377C22.7498 31.1634 22.6709 31.1713 19.0764 31.1713H15.7656V31.8019V32.4325H19.1552C22.8207 32.4325 22.9784 32.4167 23.5459 31.9911C23.7982 31.8019 23.8061 31.8019 25.8319 31.8019H27.8736L31.9648 30.3357C35.6224 29.0271 36.1032 28.8774 36.4422 28.9089C37.1595 28.972 37.8374 29.6814 37.8374 30.3593C37.8374 30.7062 37.6482 31.1555 37.3881 31.4235C37.1043 31.7231 20.0775 38.5338 19.2813 38.6678C18.2408 38.8412 17.8467 38.7624 13.8343 37.5248L10.1294 36.3897L10.1057 32.4404L10.09 28.499L10.6181 28.3413C13.8658 27.3875 14.7724 27.2535 16.3726 27.4742ZM5.04499 33.6938V38.7388H3.15312H1.26125V33.6938V28.6488H3.15312H5.04499V33.6938ZM8.82874 33.0631V37.4775H7.56749H6.30624V33.0631V28.6488H7.56749H8.82874V33.0631Z" fill="white"/>
</svg>
